<svg xmlns="http://www.w3.org/2000/svg" width="500" height="500"><circle cx="0" cy="0" r="25" fill="black"/><circle cx="0" cy="25" r="25" fill="black"/><circle cx="0" cy="50" r="25" fill="black"/><circle cx="0" cy="75" r="25" fill="black"/><circle cx="0" cy="100" r="25" fill="black"/><circle cx="0" cy="125" r="25" fill="black"/><circle cx="0" cy="150" r="25" fill="black"/><circle cx="0" cy="175" r="25" fill="black"/><circle cx="0" cy="200" r="25" fill="black"/><circle cx="0" cy="225" r="25" fill="black"/><circle cx="0" cy="250" r="25" fill="black"/><circle cx="0" cy="275" r="25" fill="black"/><circle cx="0" cy="300" r="25" fill="black"/><circle cx="0" cy="325" r="25" fill="black"/><circle cx="0" cy="350" r="25" fill="black"/><circle cx="0" cy="375" r="25" fill="black"/><circle cx="0" cy="400" r="25" fill="black"/><circle cx="0" cy="425" r="25" fill="black"/><circle cx="0" cy="450" r="25" fill="black"/><circle cx="0" cy="475" r="25" fill="black"/><circle cx="25" cy="0" r="25" fill="black"/><circle cx="25" cy="25" r="25" fill="black"/><circle cx="25" cy="50" r="25" fill="black"/><circle cx="25" cy="75" r="25" fill="black"/><circle cx="25" cy="100" r="25" fill="black"/><circle cx="25" cy="125" r="25" fill="black"/><circle cx="25" cy="150" r="25" fill="black"/><circle cx="25" cy="175" r="25" fill="black"/><circle cx="25" cy="200" r="25" fill="black"/><circle cx="25" cy="225" r="25" fill="black"/><circle cx="25" cy="250" r="25" fill="black"/><circle cx="25" cy="275" r="25" fill="black"/><circle cx="25" cy="300" r="25" fill="black"/><circle cx="25" cy="325" r="25" fill="black"/><circle cx="25" cy="350" r="25" fill="black"/><circle cx="25" cy="375" r="25" fill="black"/><circle cx="25" cy="400" r="25" fill="black"/><circle cx="25" cy="425" r="25" fill="black"/><circle cx="25" cy="450" r="25" fill="black"/><circle cx="25" cy="475" r="25" fill="black"/><circle cx="50" cy="0" r="25" fill="black"/><circle cx="50" cy="25" r="25" fill="black"/><circle cx="50" cy="50" r="25" fill="black"/><circle cx="50" cy="75" r="25" fill="black"/><circle cx="50" cy="100" r="25" fill="black"/><circle cx="50" cy="125" r="25" fill="black"/><circle cx="50" cy="150" r="25" fill="black"/><circle cx="50" cy="175" r="25" fill="black"/><circle cx="50" cy="200" r="25" fill="black"/><circle cx="50" cy="225" r="25" fill="black"/><circle cx="50" cy="250" r="25" fill="black"/><circle cx="50" cy="275" r="25" fill="black"/><circle cx="50" cy="300" r="25" fill="black"/><circle cx="50" cy="325" r="25" fill="black"/><circle cx="50" cy="350" r="25" fill="black"/><circle cx="50" cy="375" r="25" fill="black"/><circle cx="50" cy="400" r="25" fill="black"/><circle cx="50" cy="425" r="25" fill="black"/><circle cx="50" cy="450" r="25" fill="black"/><circle cx="50" cy="475" r="25" fill="black"/><circle cx="75" cy="0" r="25" fill="black"/><circle cx="75" cy="25" r="25" fill="black"/><circle cx="75" cy="50" r="25" fill="black"/><circle cx="75" cy="75" r="25" fill="black"/><circle cx="75" cy="100" r="25" fill="black"/><circle cx="75" cy="125" r="25" fill="black"/><circle cx="75" cy="150" r="25" fill="black"/><circle cx="75" cy="175" r="25" fill="black"/><circle cx="75" cy="200" r="25" fill="black"/><circle cx="75" cy="225" r="25" fill="black"/><circle cx="75" cy="250" r="25" fill="black"/><circle cx="75" cy="275" r="25" fill="black"/><circle cx="75" cy="300" r="25" fill="black"/><circle cx="75" cy="325" r="25" fill="black"/><circle cx="75" cy="350" r="25" fill="black"/><circle cx="75" cy="375" r="25" fill="black"/><circle cx="75" cy="400" r="25" fill="black"/><circle cx="75" cy="425" r="25" fill="black"/><circle cx="75" cy="450" r="25" fill="black"/><circle cx="75" cy="475" r="25" fill="black"/><circle cx="100" cy="0" r="25" fill="black"/><circle cx="100" cy="25" r="25" fill="black"/><circle cx="100" cy="50" r="25" fill="black"/><circle cx="100" cy="75" r="25" fill="black"/><circle cx="100" cy="100" r="25" fill="black"/><circle cx="100" cy="125" r="25" fill="black"/><circle cx="100" cy="150" r="25" fill="black"/><circle cx="100" cy="175" r="25" fill="black"/><circle cx="100" cy="200" r="25" fill="black"/><circle cx="100" cy="225" r="25" fill="black"/><circle cx="100" cy="250" r="25" fill="black"/><circle cx="100" cy="275" r="25" fill="black"/><circle cx="100" cy="300" r="25" fill="black"/><circle cx="100" cy="325" r="25" fill="black"/><circle cx="100" cy="350" r="25" fill="black"/><circle cx="100" cy="375" r="25" fill="black"/><circle cx="100" cy="400" r="25" fill="black"/><circle cx="100" cy="425" r="25" fill="black"/><circle cx="100" cy="450" r="25" fill="black"/><circle cx="100" cy="475" r="25" fill="black"/><circle cx="125" cy="0" r="25" fill="black"/><circle cx="125" cy="25" r="25" fill="black"/><circle cx="125" cy="50" r="25" fill="black"/><circle cx="125" cy="75" r="25" fill="black"/><circle cx="125" cy="100" r="25" fill="black"/><circle cx="125" cy="125" r="25" fill="black"/><circle cx="125" cy="150" r="25" fill="black"/><circle cx="125" cy="175" r="25" fill="black"/><circle cx="125" cy="200" r="25" fill="black"/><circle cx="125" cy="225" r="25" fill="black"/><circle cx="125" cy="250" r="25" fill="black"/><circle cx="125" cy="275" r="25" fill="black"/><circle cx="125" cy="300" r="25" fill="black"/><circle cx="125" cy="325" r="25" fill="black"/><circle cx="125" cy="350" r="25" fill="black"/><circle cx="125" cy="375" r="25" fill="black"/><circle cx="125" cy="400" r="25" fill="black"/><circle cx="125" cy="425" r="25" fill="black"/><circle cx="125" cy="450" r="25" fill="black"/><circle cx="125" cy="475" r="25" fill="black"/><circle cx="150" cy="0" r="25" fill="black"/><circle cx="150" cy="25" r="25" fill="black"/><circle cx="150" cy="50" r="25" fill="black"/><circle cx="150" cy="75" r="25" fill="black"/><circle cx="150" cy="100" r="25" fill="black"/><circle cx="150" cy="125" r="25" fill="black"/><circle cx="150" cy="150" r="25" fill="black"/><circle cx="150" cy="175" r="25" fill="black"/><circle cx="150" cy="200" r="25" fill="black"/><circle cx="150" cy="225" r="25" fill="black"/><circle cx="150" cy="250" r="25" fill="black"/><circle cx="150" cy="275" r="25" fill="black"/><circle cx="150" cy="300" r="25" fill="black"/><circle cx="150" cy="325" r="25" fill="black"/><circle cx="150" cy="350" r="25" fill="black"/><circle cx="150" cy="375" r="25" fill="black"/><circle cx="150" cy="400" r="25" fill="black"/><circle cx="150" cy="425" r="25" fill="black"/><circle cx="150" cy="450" r="25" fill="black"/><circle cx="150" cy="475" r="25" fill="black"/><circle cx="175" cy="0" r="25" fill="black"/><circle cx="175" cy="25" r="25" fill="black"/><circle cx="175" cy="50" r="25" fill="black"/><circle cx="175" cy="75" r="25" fill="black"/><circle cx="175" cy="100" r="25" fill="black"/><circle cx="175" cy="125" r="25" fill="black"/><circle cx="175" cy="150" r="25" fill="black"/><circle cx="175" cy="175" r="25" fill="black"/><circle cx="175" cy="200" r="25" fill="black"/><circle cx="175" cy="225" r="25" fill="black"/><circle cx="175" cy="250" r="25" fill="black"/><circle cx="175" cy="275" r="25" fill="black"/><circle cx="175" cy="300" r="25" fill="black"/><circle cx="175" cy="325" r="25" fill="black"/><circle cx="175" cy="350" r="25" fill="black"/><circle cx="175" cy="375" r="25" fill="black"/><circle cx="175" cy="400" r="25" fill="black"/><circle cx="175" cy="425" r="25" fill="black"/><circle cx="175" cy="450" r="25" fill="black"/><circle cx="175" cy="475" r="25" fill="black"/><circle cx="200" cy="0" r="25" fill="black"/><circle cx="200" cy="25" r="25" fill="black"/><circle cx="200" cy="50" r="25" fill="black"/><circle cx="200" cy="75" r="25" fill="black"/><circle cx="200" cy="100" r="25" fill="black"/><circle cx="200" cy="125" r="25" fill="black"/><circle cx="200" cy="150" r="25" fill="black"/><circle cx="200" cy="175" r="25" fill="black"/><circle cx="200" cy="200" r="25" fill="black"/><circle cx="200" cy="225" r="25" fill="black"/><circle cx="200" cy="250" r="25" fill="black"/><circle cx="200" cy="275" r="25" fill="black"/><circle cx="200" cy="300" r="25" fill="black"/><circle cx="200" cy="325" r="25" fill="black"/><circle cx="200" cy="350" r="25" fill="black"/><circle cx="200" cy="375" r="25" fill="black"/><circle cx="200" cy="400" r="25" fill="black"/><circle cx="200" cy="425" r="25" fill="black"/><circle cx="200" cy="450" r="25" fill="black"/><circle cx="200" cy="475" r="25" fill="black"/><circle cx="225" cy="0" r="25" fill="black"/><circle cx="225" cy="25" r="25" fill="black"/><circle cx="225" cy="50" r="25" fill="black"/><circle cx="225" cy="75" r="25" fill="black"/><circle cx="225" cy="100" r="25" fill="black"/><circle cx="225" cy="125" r="25" fill="black"/><circle cx="225" cy="150" r="25" fill="black"/><circle cx="225" cy="175" r="25" fill="black"/><circle cx="225" cy="200" r="25" fill="black"/><circle cx="225" cy="225" r="25" fill="black"/><circle cx="225" cy="250" r="25" fill="black"/><circle cx="225" cy="275" r="25" fill="black"/><circle cx="225" cy="300" r="25" fill="black"/><circle cx="225" cy="325" r="25" fill="black"/><circle cx="225" cy="350" r="25" fill="black"/><circle cx="225" cy="375" r="25" fill="black"/><circle cx="225" cy="400" r="25" fill="black"/><circle cx="225" cy="425" r="25" fill="black"/><circle cx="225" cy="450" r="25" fill="black"/><circle cx="225" cy="475" r="25" fill="black"/><circle cx="250" cy="0" r="25" fill="black"/><circle cx="250" cy="25" r="25" fill="black"/><circle cx="250" cy="50" r="25" fill="black"/><circle cx="250" cy="75" r="25" fill="black"/><circle cx="250" cy="100" r="25" fill="black"/><circle cx="250" cy="125" r="25" fill="black"/><circle cx="250" cy="150" r="25" fill="black"/><circle cx="250" cy="175" r="25" fill="black"/><circle cx="250" cy="200" r="25" fill="black"/><circle cx="250" cy="225" r="25" fill="black"/><circle cx="250" cy="250" r="25" fill="black"/><circle cx="250" cy="275" r="25" fill="black"/><circle cx="250" cy="300" r="25" fill="black"/><circle cx="250" cy="325" r="25" fill="black"/><circle cx="250" cy="350" r="25" fill="black"/><circle cx="250" cy="375" r="25" fill="black"/><circle cx="250" cy="400" r="25" fill="black"/><circle cx="250" cy="425" r="25" fill="black"/><circle cx="250" cy="450" r="25" fill="black"/><circle cx="250" cy="475" r="25" fill="black"/><circle cx="275" cy="0" r="25" fill="black"/><circle cx="275" cy="25" r="25" fill="black"/><circle cx="275" cy="50" r="25" fill="black"/><circle cx="275" cy="75" r="25" fill="black"/><circle cx="275" cy="100" r="25" fill="black"/><circle cx="275" cy="125" r="25" fill="black"/><circle cx="275" cy="150" r="25" fill="black"/><circle cx="275" cy="175" r="25" fill="black"/><circle cx="275" cy="200" r="25" fill="black"/><circle cx="275" cy="225" r="25" fill="black"/><circle cx="275" cy="250" r="25" fill="black"/><circle cx="275" cy="275" r="25" fill="black"/><circle cx="275" cy="300" r="25" fill="black"/><circle cx="275" cy="325" r="25" fill="black"/><circle cx="275" cy="350" r="25" fill="black"/><circle cx="275" cy="375" r="25" fill="black"/><circle cx="275" cy="400" r="25" fill="black"/><circle cx="275" cy="425" r="25" fill="black"/><circle cx="275" cy="450" r="25" fill="black"/><circle cx="275" cy="475" r="25" fill="black"/><circle cx="300" cy="0" r="25" fill="black"/><circle cx="300" cy="25" r="25" fill="black"/><circle cx="300" cy="50" r="25" fill="black"/><circle cx="300" cy="75" r="25" fill="black"/><circle cx="300" cy="100" r="25" fill="black"/><circle cx="300" cy="125" r="25" fill="black"/><circle cx="300" cy="150" r="25" fill="black"/><circle cx="300" cy="175" r="25" fill="black"/><circle cx="300" cy="200" r="25" fill="black"/><circle cx="300" cy="225" r="25" fill="black"/><circle cx="300" cy="250" r="25" fill="black"/><circle cx="300" cy="275" r="25" fill="black"/><circle cx="300" cy="300" r="25" fill="black"/><circle cx="300" cy="325" r="25" fill="black"/><circle cx="300" cy="350" r="25" fill="black"/><circle cx="300" cy="375" r="25" fill="black"/><circle cx="300" cy="400" r="25" fill="black"/><circle cx="300" cy="425" r="25" fill="black"/><circle cx="300" cy="450" r="25" fill="black"/><circle cx="300" cy="475" r="25" fill="black"/><circle cx="325" cy="0" r="25" fill="black"/><circle cx="325" cy="25" r="25" fill="black"/><circle cx="325" cy="50" r="25" fill="black"/><circle cx="325" cy="75" r="25" fill="black"/><circle cx="325" cy="100" r="25" fill="black"/><circle cx="325" cy="125" r="25" fill="black"/><circle cx="325" cy="150" r="25" fill="black"/><circle cx="325" cy="175" r="25" fill="black"/><circle cx="325" cy="200" r="25" fill="black"/><circle cx="325" cy="225" r="25" fill="black"/><circle cx="325" cy="250" r="25" fill="black"/><circle cx="325" cy="275" r="25" fill="black"/><circle cx="325" cy="300" r="25" fill="black"/><circle cx="325" cy="325" r="25" fill="black"/><circle cx="325" cy="350" r="25" fill="black"/><circle cx="325" cy="375" r="25" fill="black"/><circle cx="325" cy="400" r="25" fill="black"/><circle cx="325" cy="425" r="25" fill="black"/><circle cx="325" cy="450" r="25" fill="black"/><circle cx="325" cy="475" r="25" fill="black"/><circle cx="350" cy="0" r="25" fill="black"/><circle cx="350" cy="25" r="25" fill="black"/><circle cx="350" cy="50" r="25" fill="black"/><circle cx="350" cy="75" r="25" fill="black"/><circle cx="350" cy="100" r="25" fill="black"/><circle cx="350" cy="125" r="25" fill="black"/><circle cx="350" cy="150" r="25" fill="black"/><circle cx="350" cy="175" r="25" fill="black"/><circle cx="350" cy="200" r="25" fill="black"/><circle cx="350" cy="225" r="25" fill="black"/><circle cx="350" cy="250" r="25" fill="black"/><circle cx="350" cy="275" r="25" fill="black"/><circle cx="350" cy="300" r="25" fill="black"/><circle cx="350" cy="325" r="25" fill="black"/><circle cx="350" cy="350" r="25" fill="black"/><circle cx="350" cy="375" r="25" fill="black"/><circle cx="350" cy="400" r="25" fill="black"/><circle cx="350" cy="425" r="25" fill="black"/><circle cx="350" cy="450" r="25" fill="black"/><circle cx="350" cy="475" r="25" fill="black"/><circle cx="375" cy="0" r="25" fill="black"/><circle cx="375" cy="25" r="25" fill="black"/><circle cx="375" cy="50" r="25" fill="black"/><circle cx="375" cy="75" r="25" fill="black"/><circle cx="375" cy="100" r="25" fill="black"/><circle cx="375" cy="125" r="25" fill="black"/><circle cx="375" cy="150" r="25" fill="black"/><circle cx="375" cy="175" r="25" fill="black"/><circle cx="375" cy="200" r="25" fill="black"/><circle cx="375" cy="225" r="25" fill="black"/><circle cx="375" cy="250" r="25" fill="black"/><circle cx="375" cy="275" r="25" fill="black"/><circle cx="375" cy="300" r="25" fill="black"/><circle cx="375" cy="325" r="25" fill="black"/><circle cx="375" cy="350" r="25" fill="black"/><circle cx="375" cy="375" r="25" fill="black"/><circle cx="375" cy="400" r="25" fill="black"/><circle cx="375" cy="425" r="25" fill="black"/><circle cx="375" cy="450" r="25" fill="black"/><circle cx="375" cy="475" r="25" fill="black"/><circle cx="400" cy="0" r="25" fill="black"/><circle cx="400" cy="25" r="25" fill="black"/><circle cx="400" cy="50" r="25" fill="black"/><circle cx="400" cy="75" r="25" fill="black"/><circle cx="400" cy="100" r="25" fill="black"/><circle cx="400" cy="125" r="25" fill="black"/><circle cx="400" cy="150" r="25" fill="black"/><circle cx="400" cy="175" r="25" fill="black"/><circle cx="400" cy="200" r="25" fill="black"/><circle cx="400" cy="225" r="25" fill="black"/><circle cx="400" cy="250" r="25" fill="black"/><circle cx="400" cy="275" r="25" fill="black"/><circle cx="400" cy="300" r="25" fill="black"/><circle cx="400" cy="325" r="25" fill="black"/><circle cx="400" cy="350" r="25" fill="black"/><circle cx="400" cy="375" r="25" fill="black"/><circle cx="400" cy="400" r="25" fill="black"/><circle cx="400" cy="425" r="25" fill="black"/><circle cx="400" cy="450" r="25" fill="black"/><circle cx="400" cy="475" r="25" fill="black"/><circle cx="425" cy="0" r="25" fill="black"/><circle cx="425" cy="25" r="25" fill="black"/><circle cx="425" cy="50" r="25" fill="black"/><circle cx="425" cy="75" r="25" fill="black"/><circle cx="425" cy="100" r="25" fill="black"/><circle cx="425" cy="125" r="25" fill="black"/><circle cx="425" cy="150" r="25" fill="black"/><circle cx="425" cy="175" r="25" fill="black"/><circle cx="425" cy="200" r="25" fill="black"/><circle cx="425" cy="225" r="25" fill="black"/><circle cx="425" cy="250" r="25" fill="black"/><circle cx="425" cy="275" r="25" fill="black"/><circle cx="425" cy="300" r="25" fill="black"/><circle cx="425" cy="325" r="25" fill="black"/><circle cx="425" cy="350" r="25" fill="black"/><circle cx="425" cy="375" r="25" fill="black"/><circle cx="425" cy="400" r="25" fill="black"/><circle cx="425" cy="425" r="25" fill="black"/><circle cx="425" cy="450" r="25" fill="black"/><circle cx="425" cy="475" r="25" fill="black"/><circle cx="450" cy="0" r="25" fill="black"/><circle cx="450" cy="25" r="25" fill="black"/><circle cx="450" cy="50" r="25" fill="black"/><circle cx="450" cy="75" r="25" fill="black"/><circle cx="450" cy="100" r="25" fill="black"/><circle cx="450" cy="125" r="25" fill="black"/><circle cx="450" cy="150" r="25" fill="black"/><circle cx="450" cy="175" r="25" fill="black"/><circle cx="450" cy="200" r="25" fill="black"/><circle cx="450" cy="225" r="25" fill="black"/><circle cx="450" cy="250" r="25" fill="black"/><circle cx="450" cy="275" r="25" fill="black"/><circle cx="450" cy="300" r="25" fill="black"/><circle cx="450" cy="325" r="25" fill="black"/><circle cx="450" cy="350" r="25" fill="black"/><circle cx="450" cy="375" r="25" fill="black"/><circle cx="450" cy="400" r="25" fill="black"/><circle cx="450" cy="425" r="25" fill="black"/><circle cx="450" cy="450" r="25" fill="black"/><circle cx="450" cy="475" r="25" fill="black"/><circle cx="475" cy="0" r="25" fill="black"/><circle cx="475" cy="25" r="25" fill="black"/><circle cx="475" cy="50" r="25" fill="black"/><circle cx="475" cy="75" r="25" fill="black"/><circle cx="475" cy="100" r="25" fill="black"/><circle cx="475" cy="125" r="25" fill="black"/><circle cx="475" cy="150" r="25" fill="black"/><circle cx="475" cy="175" r="25" fill="black"/><circle cx="475" cy="200" r="25" fill="black"/><circle cx="475" cy="225" r="25" fill="black"/><circle cx="475" cy="250" r="25" fill="black"/><circle cx="475" cy="275" r="25" fill="black"/><circle cx="475" cy="300" r="25" fill="black"/><circle cx="475" cy="325" r="25" fill="black"/><circle cx="475" cy="350" r="25" fill="black"/><circle cx="475" cy="375" r="25" fill="black"/><circle cx="475" cy="400" r="25" fill="black"/><circle cx="475" cy="425" r="25" fill="black"/><circle cx="475" cy="450" r="25" fill="black"/><circle cx="475" cy="475" r="25" fill="black"/></svg>