<svg xmlns="http://www.w3.org/2000/svg" width="500" height="500"><circle cx="0" cy="0" r="25" fill="black"/><circle cx="0" cy="25" r="25" fill="black"/><circle cx="0" cy="50" r="25" fill="black"/><circle cx="0" cy="75" r="25" fill="black"/><circle cx="0" cy="100" r="25" fill="black"/><circle cx="0" cy="125" r="25" fill="black"/><circle cx="0" cy="150" r="25" fill="black"/><circle cx="0" cy="175" r="25" fill="black"/><circle cx="0" cy="200" r="25" fill="black"/><circle cx="0" cy="225" r="25" fill="black"/><circle cx="0" cy="250" r="25" fill="black"/><circle cx="0" cy="275" r="25" fill="black"/><circle cx="0" cy="300" r="25" fill="black"/><circle cx="0" cy="325" r="25" fill="black"/><circle cx="0" cy="350" r="25" fill="black"/><circle cx="0" cy="375" r="25" fill="black"/><circle cx="0" cy="400" r="25" fill="black"/><circle cx="0" cy="425" r="25" fill="black"/><circle cx="0" cy="450" r="25" fill="black"/><circle cx="0" cy="475" r="25" fill="black"/><circle cx="0" cy="500" r="25" fill="black"/><circle cx="25" cy="0" r="25" fill="black"/><circle cx="25" cy="25" r="25" fill="black"/><circle cx="25" cy="50" r="25" fill="black"/><circle cx="25" cy="75" r="25" fill="black"/><circle cx="25" cy="100" r="25" fill="black"/><circle cx="25" cy="125" r="25" fill="black"/><circle cx="25" cy="150" r="25" fill="black"/><circle cx="25" cy="175" r="25" fill="black"/><circle cx="25" cy="200" r="25" fill="black"/><circle cx="25" cy="225" r="25" fill="black"/><circle cx="25" cy="250" r="25" fill="black"/><circle cx="25" cy="275" r="25" fill="black"/><circle cx="25" cy="300" r="25" fill="black"/><circle cx="25" cy="325" r="25" fill="black"/><circle cx="25" cy="350" r="25" fill="black"/><circle cx="25" cy="375" r="25" fill="black"/><circle cx="25" cy="400" r="25" fill="black"/><circle cx="25" cy="425" r="25" fill="black"/><circle cx="25" cy="450" r="25" fill="black"/><circle cx="25" cy="475" r="25" fill="black"/><circle cx="25" cy="500" r="25" fill="black"/><circle cx="50" cy="0" r="25" fill="black"/><circle cx="50" cy="25" r="25" fill="black"/><circle cx="50" cy="50" r="25" fill="black"/><circle cx="50" cy="75" r="25" fill="black"/><circle cx="50" cy="100" r="25" fill="black"/><circle cx="50" cy="125" r="25" fill="black"/><circle cx="50" cy="150" r="25" fill="black"/><circle cx="50" cy="175" r="25" fill="black"/><circle cx="50" cy="200" r="25" fill="black"/><circle cx="50" cy="225" r="25" fill="black"/><circle cx="50" cy="250" r="25" fill="black"/><circle cx="50" cy="275" r="25" fill="black"/><circle cx="50" cy="300" r="25" fill="black"/><circle cx="50" cy="325" r="25" fill="black"/><circle cx="50" cy="350" r="25" fill="black"/><circle cx="50" cy="375" r="25" fill="black"/><circle cx="50" cy="400" r="25" fill="black"/><circle cx="50" cy="425" r="25" fill="black"/><circle cx="50" cy="450" r="25" fill="black"/><circle cx="50" cy="475" r="25" fill="black"/><circle cx="50" cy="500" r="25" fill="black"/><circle cx="75" cy="0" r="25" fill="black"/><circle cx="75" cy="25" r="25" fill="black"/><circle cx="75" cy="50" r="25" fill="black"/><circle cx="75" cy="75" r="25" fill="black"/><circle cx="75" cy="100" r="25" fill="black"/><circle cx="75" cy="125" r="25" fill="black"/><circle cx="75" cy="150" r="25" fill="black"/><circle cx="75" cy="175" r="25" fill="black"/><circle cx="75" cy="200" r="25" fill="black"/><circle cx="75" cy="225" r="25" fill="black"/><circle cx="75" cy="250" r="25" fill="black"/><circle cx="75" cy="275" r="25" fill="black"/><circle cx="75" cy="300" r="25" fill="black"/><circle cx="75" cy="325" r="25" fill="black"/><circle cx="75" cy="350" r="25" fill="black"/><circle cx="75" cy="375" r="25" fill="black"/><circle cx="75" cy="400" r="25" fill="black"/><circle cx="75" cy="425" r="25" fill="black"/><circle cx="75" cy="450" r="25" fill="black"/><circle cx="75" cy="475" r="25" fill="black"/><circle cx="75" cy="500" r="25" fill="black"/><circle cx="100" cy="0" r="25" fill="black"/><circle cx="100" cy="25" r="25" fill="black"/><circle cx="100" cy="50" r="25" fill="black"/><circle cx="100" cy="75" r="25" fill="black"/><circle cx="100" cy="100" r="25" fill="black"/><circle cx="100" cy="125" r="25" fill="black"/><circle cx="100" cy="150" r="25" fill="black"/><circle cx="100" cy="175" r="25" fill="black"/><circle cx="100" cy="200" r="25" fill="black"/><circle cx="100" cy="225" r="25" fill="black"/><circle cx="100" cy="250" r="25" fill="black"/><circle cx="100" cy="275" r="25" fill="black"/><circle cx="100" cy="300" r="25" fill="black"/><circle cx="100" cy="325" r="25" fill="black"/><circle cx="100" cy="350" r="25" fill="black"/><circle cx="100" cy="375" r="25" fill="black"/><circle cx="100" cy="400" r="25" fill="black"/><circle cx="100" cy="425" r="25" fill="black"/><circle cx="100" cy="450" r="25" fill="black"/><circle cx="100" cy="475" r="25" fill="black"/><circle cx="100" cy="500" r="25" fill="black"/><circle cx="125" cy="0" r="25" fill="black"/><circle cx="125" cy="25" r="25" fill="black"/><circle cx="125" cy="50" r="25" fill="black"/><circle cx="125" cy="75" r="25" fill="black"/><circle cx="125" cy="100" r="25" fill="black"/><circle cx="125" cy="125" r="25" fill="black"/><circle cx="125" cy="150" r="25" fill="black"/><circle cx="125" cy="175" r="25" fill="black"/><circle cx="125" cy="200" r="25" fill="black"/><circle cx="125" cy="225" r="25" fill="black"/><circle cx="125" cy="250" r="25" fill="black"/><circle cx="125" cy="275" r="25" fill="black"/><circle cx="125" cy="300" r="25" fill="black"/><circle cx="125" cy="325" r="25" fill="black"/><circle cx="125" cy="350" r="25" fill="black"/><circle cx="125" cy="375" r="25" fill="black"/><circle cx="125" cy="400" r="25" fill="black"/><circle cx="125" cy="425" r="25" fill="black"/><circle cx="125" cy="450" r="25" fill="black"/><circle cx="125" cy="475" r="25" fill="black"/><circle cx="125" cy="500" r="25" fill="black"/><circle cx="150" cy="0" r="25" fill="black"/><circle cx="150" cy="25" r="25" fill="black"/><circle cx="150" cy="50" r="25" fill="black"/><circle cx="150" cy="75" r="25" fill="black"/><circle cx="150" cy="100" r="25" fill="black"/><circle cx="150" cy="125" r="25" fill="black"/><circle cx="150" cy="150" r="25" fill="black"/><circle cx="150" cy="175" r="25" fill="black"/><circle cx="150" cy="200" r="25" fill="black"/><circle cx="150" cy="225" r="25" fill="black"/><circle cx="150" cy="250" r="25" fill="black"/><circle cx="150" cy="275" r="25" fill="black"/><circle cx="150" cy="300" r="25" fill="black"/><circle cx="150" cy="325" r="25" fill="black"/><circle cx="150" cy="350" r="25" fill="black"/><circle cx="150" cy="375" r="25" fill="black"/><circle cx="150" cy="400" r="25" fill="black"/><circle cx="150" cy="425" r="25" fill="black"/><circle cx="150" cy="450" r="25" fill="black"/><circle cx="150" cy="475" r="25" fill="black"/><circle cx="150" cy="500" r="25" fill="black"/><circle cx="175" cy="0" r="25" fill="black"/><circle cx="175" cy="25" r="25" fill="black"/><circle cx="175" cy="50" r="25" fill="black"/><circle cx="175" cy="75" r="25" fill="black"/><circle cx="175" cy="100" r="25" fill="black"/><circle cx="175" cy="125" r="25" fill="black"/><circle cx="175" cy="150" r="25" fill="black"/><circle cx="175" cy="175" r="25" fill="black"/><circle cx="175" cy="200" r="25" fill="black"/><circle cx="175" cy="225" r="25" fill="black"/><circle cx="175" cy="250" r="25" fill="black"/><circle cx="175" cy="275" r="25" fill="black"/><circle cx="175" cy="300" r="25" fill="black"/><circle cx="175" cy="325" r="25" fill="black"/><circle cx="175" cy="350" r="25" fill="black"/><circle cx="175" cy="375" r="25" fill="black"/><circle cx="175" cy="400" r="25" fill="black"/><circle cx="175" cy="425" r="25" fill="black"/><circle cx="175" cy="450" r="25" fill="black"/><circle cx="175" cy="475" r="25" fill="black"/><circle cx="175" cy="500" r="25" fill="black"/><circle cx="200" cy="0" r="25" fill="black"/><circle cx="200" cy="25" r="25" fill="black"/><circle cx="200" cy="50" r="25" fill="black"/><circle cx="200" cy="75" r="25" fill="black"/><circle cx="200" cy="100" r="25" fill="black"/><circle cx="200" cy="125" r="25" fill="black"/><circle cx="200" cy="150" r="25" fill="black"/><circle cx="200" cy="175" r="25" fill="black"/><circle cx="200" cy="200" r="25" fill="black"/><circle cx="200" cy="225" r="25" fill="black"/><circle cx="200" cy="250" r="25" fill="black"/><circle cx="200" cy="275" r="25" fill="black"/><circle cx="200" cy="300" r="25" fill="black"/><circle cx="200" cy="325" r="25" fill="black"/><circle cx="200" cy="350" r="25" fill="black"/><circle cx="200" cy="375" r="25" fill="black"/><circle cx="200" cy="400" r="25" fill="black"/><circle cx="200" cy="425" r="25" fill="black"/><circle cx="200" cy="450" r="25" fill="black"/><circle cx="200" cy="475" r="25" fill="black"/><circle cx="200" cy="500" r="25" fill="black"/><circle cx="225" cy="0" r="25" fill="black"/><circle cx="225" cy="25" r="25" fill="black"/><circle cx="225" cy="50" r="25" fill="black"/><circle cx="225" cy="75" r="25" fill="black"/><circle cx="225" cy="100" r="25" fill="black"/><circle cx="225" cy="125" r="25" fill="black"/><circle cx="225" cy="150" r="25" fill="black"/><circle cx="225" cy="175" r="25" fill="black"/><circle cx="225" cy="200" r="25" fill="black"/><circle cx="225" cy="225" r="25" fill="black"/><circle cx="225" cy="250" r="25" fill="black"/><circle cx="225" cy="275" r="25" fill="black"/><circle cx="225" cy="300" r="25" fill="black"/><circle cx="225" cy="325" r="25" fill="black"/><circle cx="225" cy="350" r="25" fill="black"/><circle cx="225" cy="375" r="25" fill="black"/><circle cx="225" cy="400" r="25" fill="black"/><circle cx="225" cy="425" r="25" fill="black"/><circle cx="225" cy="450" r="25" fill="black"/><circle cx="225" cy="475" r="25" fill="black"/><circle cx="225" cy="500" r="25" fill="black"/><circle cx="250" cy="0" r="25" fill="black"/><circle cx="250" cy="25" r="25" fill="black"/><circle cx="250" cy="50" r="25" fill="black"/><circle cx="250" cy="75" r="25" fill="black"/><circle cx="250" cy="100" r="25" fill="black"/><circle cx="250" cy="125" r="25" fill="black"/><circle cx="250" cy="150" r="25" fill="black"/><circle cx="250" cy="175" r="25" fill="black"/><circle cx="250" cy="200" r="25" fill="black"/><circle cx="250" cy="225" r="25" fill="black"/><circle cx="250" cy="250" r="25" fill="black"/><circle cx="250" cy="275" r="25" fill="black"/><circle cx="250" cy="300" r="25" fill="black"/><circle cx="250" cy="325" r="25" fill="black"/><circle cx="250" cy="350" r="25" fill="black"/><circle cx="250" cy="375" r="25" fill="black"/><circle cx="250" cy="400" r="25" fill="black"/><circle cx="250" cy="425" r="25" fill="black"/><circle cx="250" cy="450" r="25" fill="black"/><circle cx="250" cy="475" r="25" fill="black"/><circle cx="250" cy="500" r="25" fill="black"/><circle cx="275" cy="0" r="25" fill="black"/><circle cx="275" cy="25" r="25" fill="black"/><circle cx="275" cy="50" r="25" fill="black"/><circle cx="275" cy="75" r="25" fill="black"/><circle cx="275" cy="100" r="25" fill="black"/><circle cx="275" cy="125" r="25" fill="black"/><circle cx="275" cy="150" r="25" fill="black"/><circle cx="275" cy="175" r="25" fill="black"/><circle cx="275" cy="200" r="25" fill="black"/><circle cx="275" cy="225" r="25" fill="black"/><circle cx="275" cy="250" r="25" fill="black"/><circle cx="275" cy="275" r="25" fill="black"/><circle cx="275" cy="300" r="25" fill="black"/><circle cx="275" cy="325" r="25" fill="black"/><circle cx="275" cy="350" r="25" fill="black"/><circle cx="275" cy="375" r="25" fill="black"/><circle cx="275" cy="400" r="25" fill="black"/><circle cx="275" cy="425" r="25" fill="black"/><circle cx="275" cy="450" r="25" fill="black"/><circle cx="275" cy="475" r="25" fill="black"/><circle cx="275" cy="500" r="25" fill="black"/><circle cx="300" cy="0" r="25" fill="black"/><circle cx="300" cy="25" r="25" fill="black"/><circle cx="300" cy="50" r="25" fill="black"/><circle cx="300" cy="75" r="25" fill="black"/><circle cx="300" cy="100" r="25" fill="black"/><circle cx="300" cy="125" r="25" fill="black"/><circle cx="300" cy="150" r="25" fill="black"/><circle cx="300" cy="175" r="25" fill="black"/><circle cx="300" cy="200" r="25" fill="black"/><circle cx="300" cy="225" r="25" fill="black"/><circle cx="300" cy="250" r="25" fill="black"/><circle cx="300" cy="275" r="25" fill="black"/><circle cx="300" cy="300" r="25" fill="black"/><circle cx="300" cy="325" r="25" fill="black"/><circle cx="300" cy="350" r="25" fill="black"/><circle cx="300" cy="375" r="25" fill="black"/><circle cx="300" cy="400" r="25" fill="black"/><circle cx="300" cy="425" r="25" fill="black"/><circle cx="300" cy="450" r="25" fill="black"/><circle cx="300" cy="475" r="25" fill="black"/><circle cx="300" cy="500" r="25" fill="black"/><circle cx="325" cy="0" r="25" fill="black"/><circle cx="325" cy="25" r="25" fill="black"/><circle cx="325" cy="50" r="25" fill="black"/><circle cx="325" cy="75" r="25" fill="black"/><circle cx="325" cy="100" r="25" fill="black"/><circle cx="325" cy="125" r="25" fill="black"/><circle cx="325" cy="150" r="25" fill="black"/><circle cx="325" cy="175" r="25" fill="black"/><circle cx="325" cy="200" r="25" fill="black"/><circle cx="325" cy="225" r="25" fill="black"/><circle cx="325" cy="250" r="25" fill="black"/><circle cx="325" cy="275" r="25" fill="black"/><circle cx="325" cy="300" r="25" fill="black"/><circle cx="325" cy="325" r="25" fill="black"/><circle cx="325" cy="350" r="25" fill="black"/><circle cx="325" cy="375" r="25" fill="black"/><circle cx="325" cy="400" r="25" fill="black"/><circle cx="325" cy="425" r="25" fill="black"/><circle cx="325" cy="450" r="25" fill="black"/><circle cx="325" cy="475" r="25" fill="black"/><circle cx="325" cy="500" r="25" fill="black"/><circle cx="350" cy="0" r="25" fill="black"/><circle cx="350" cy="25" r="25" fill="black"/><circle cx="350" cy="50" r="25" fill="black"/><circle cx="350" cy="75" r="25" fill="black"/><circle cx="350" cy="100" r="25" fill="black"/><circle cx="350" cy="125" r="25" fill="black"/><circle cx="350" cy="150" r="25" fill="black"/><circle cx="350" cy="175" r="25" fill="black"/><circle cx="350" cy="200" r="25" fill="black"/><circle cx="350" cy="225" r="25" fill="black"/><circle cx="350" cy="250" r="25" fill="black"/><circle cx="350" cy="275" r="25" fill="black"/><circle cx="350" cy="300" r="25" fill="black"/><circle cx="350" cy="325" r="25" fill="black"/><circle cx="350" cy="350" r="25" fill="black"/><circle cx="350" cy="375" r="25" fill="black"/><circle cx="350" cy="400" r="25" fill="black"/><circle cx="350" cy="425" r="25" fill="black"/><circle cx="350" cy="450" r="25" fill="black"/><circle cx="350" cy="475" r="25" fill="black"/><circle cx="350" cy="500" r="25" fill="black"/><circle cx="375" cy="0" r="25" fill="black"/><circle cx="375" cy="25" r="25" fill="black"/><circle cx="375" cy="50" r="25" fill="black"/><circle cx="375" cy="75" r="25" fill="black"/><circle cx="375" cy="100" r="25" fill="black"/><circle cx="375" cy="125" r="25" fill="black"/><circle cx="375" cy="150" r="25" fill="black"/><circle cx="375" cy="175" r="25" fill="black"/><circle cx="375" cy="200" r="25" fill="black"/><circle cx="375" cy="225" r="25" fill="black"/><circle cx="375" cy="250" r="25" fill="black"/><circle cx="375" cy="275" r="25" fill="black"/><circle cx="375" cy="300" r="25" fill="black"/><circle cx="375" cy="325" r="25" fill="black"/><circle cx="375" cy="350" r="25" fill="black"/><circle cx="375" cy="375" r="25" fill="black"/><circle cx="375" cy="400" r="25" fill="black"/><circle cx="375" cy="425" r="25" fill="black"/><circle cx="375" cy="450" r="25" fill="black"/><circle cx="375" cy="475" r="25" fill="black"/><circle cx="375" cy="500" r="25" fill="black"/><circle cx="400" cy="0" r="25" fill="black"/><circle cx="400" cy="25" r="25" fill="black"/><circle cx="400" cy="50" r="25" fill="black"/><circle cx="400" cy="75" r="25" fill="black"/><circle cx="400" cy="100" r="25" fill="black"/><circle cx="400" cy="125" r="25" fill="black"/><circle cx="400" cy="150" r="25" fill="black"/><circle cx="400" cy="175" r="25" fill="black"/><circle cx="400" cy="200" r="25" fill="black"/><circle cx="400" cy="225" r="25" fill="black"/><circle cx="400" cy="250" r="25" fill="black"/><circle cx="400" cy="275" r="25" fill="black"/><circle cx="400" cy="300" r="25" fill="black"/><circle cx="400" cy="325" r="25" fill="black"/><circle cx="400" cy="350" r="25" fill="black"/><circle cx="400" cy="375" r="25" fill="black"/><circle cx="400" cy="400" r="25" fill="black"/><circle cx="400" cy="425" r="25" fill="black"/><circle cx="400" cy="450" r="25" fill="black"/><circle cx="400" cy="475" r="25" fill="black"/><circle cx="400" cy="500" r="25" fill="black"/><circle cx="425" cy="0" r="25" fill="black"/><circle cx="425" cy="25" r="25" fill="black"/><circle cx="425" cy="50" r="25" fill="black"/><circle cx="425" cy="75" r="25" fill="black"/><circle cx="425" cy="100" r="25" fill="black"/><circle cx="425" cy="125" r="25" fill="black"/><circle cx="425" cy="150" r="25" fill="black"/><circle cx="425" cy="175" r="25" fill="black"/><circle cx="425" cy="200" r="25" fill="black"/><circle cx="425" cy="225" r="25" fill="black"/><circle cx="425" cy="250" r="25" fill="black"/><circle cx="425" cy="275" r="25" fill="black"/><circle cx="425" cy="300" r="25" fill="black"/><circle cx="425" cy="325" r="25" fill="black"/><circle cx="425" cy="350" r="25" fill="black"/><circle cx="425" cy="375" r="25" fill="black"/><circle cx="425" cy="400" r="25" fill="black"/><circle cx="425" cy="425" r="25" fill="black"/><circle cx="425" cy="450" r="25" fill="black"/><circle cx="425" cy="475" r="25" fill="black"/><circle cx="425" cy="500" r="25" fill="black"/><circle cx="450" cy="0" r="25" fill="black"/><circle cx="450" cy="25" r="25" fill="black"/><circle cx="450" cy="50" r="25" fill="black"/><circle cx="450" cy="75" r="25" fill="black"/><circle cx="450" cy="100" r="25" fill="black"/><circle cx="450" cy="125" r="25" fill="black"/><circle cx="450" cy="150" r="25" fill="black"/><circle cx="450" cy="175" r="25" fill="black"/><circle cx="450" cy="200" r="25" fill="black"/><circle cx="450" cy="225" r="25" fill="black"/><circle cx="450" cy="250" r="25" fill="black"/><circle cx="450" cy="275" r="25" fill="black"/><circle cx="450" cy="300" r="25" fill="black"/><circle cx="450" cy="325" r="25" fill="black"/><circle cx="450" cy="350" r="25" fill="black"/><circle cx="450" cy="375" r="25" fill="black"/><circle cx="450" cy="400" r="25" fill="black"/><circle cx="450" cy="425" r="25" fill="black"/><circle cx="450" cy="450" r="25" fill="black"/><circle cx="450" cy="475" r="25" fill="black"/><circle cx="450" cy="500" r="25" fill="black"/><circle cx="475" cy="0" r="25" fill="black"/><circle cx="475" cy="25" r="25" fill="black"/><circle cx="475" cy="50" r="25" fill="black"/><circle cx="475" cy="75" r="25" fill="black"/><circle cx="475" cy="100" r="25" fill="black"/><circle cx="475" cy="125" r="25" fill="black"/><circle cx="475" cy="150" r="25" fill="black"/><circle cx="475" cy="175" r="25" fill="black"/><circle cx="475" cy="200" r="25" fill="black"/><circle cx="475" cy="225" r="25" fill="black"/><circle cx="475" cy="250" r="25" fill="black"/><circle cx="475" cy="275" r="25" fill="black"/><circle cx="475" cy="300" r="25" fill="black"/><circle cx="475" cy="325" r="25" fill="black"/><circle cx="475" cy="350" r="25" fill="black"/><circle cx="475" cy="375" r="25" fill="black"/><circle cx="475" cy="400" r="25" fill="black"/><circle cx="475" cy="425" r="25" fill="black"/><circle cx="475" cy="450" r="25" fill="black"/><circle cx="475" cy="475" r="25" fill="black"/><circle cx="475" cy="500" r="25" fill="black"/><circle cx="500" cy="0" r="25" fill="black"/><circle cx="500" cy="25" r="25" fill="black"/><circle cx="500" cy="50" r="25" fill="black"/><circle cx="500" cy="75" r="25" fill="black"/><circle cx="500" cy="100" r="25" fill="black"/><circle cx="500" cy="125" r="25" fill="black"/><circle cx="500" cy="150" r="25" fill="black"/><circle cx="500" cy="175" r="25" fill="black"/><circle cx="500" cy="200" r="25" fill="black"/><circle cx="500" cy="225" r="25" fill="black"/><circle cx="500" cy="250" r="25" fill="black"/><circle cx="500" cy="275" r="25" fill="black"/><circle cx="500" cy="300" r="25" fill="black"/><circle cx="500" cy="325" r="25" fill="black"/><circle cx="500" cy="350" r="25" fill="black"/><circle cx="500" cy="375" r="25" fill="black"/><circle cx="500" cy="400" r="25" fill="black"/><circle cx="500" cy="425" r="25" fill="black"/><circle cx="500" cy="450" r="25" fill="black"/><circle cx="500" cy="475" r="25" fill="black"/><circle cx="500" cy="500" r="25" fill="black"/><circle stroke="white" stroke-width="1" cx="11.904761904761905" cy="11.904761904761905" r="1.7274716185760002"/><circle stroke="white" stroke-width="1" cx="35.714285714285715" cy="11.904761904761905" r="3.5886254408351688"/><circle stroke="white" stroke-width="1" cx="59.523809523809526" cy="11.904761904761905" r="-2.4030171500718174"/><circle stroke="white" stroke-width="1" cx="83.33333333333334" cy="11.904761904761905" r="2.2665624030028892"/><circle stroke="white" stroke-width="1" cx="107.14285714285714" cy="11.904761904761905" r="-2.518409270306776"/><circle stroke="white" stroke-width="1" cx="130.95238095238096" cy="11.904761904761905" r="-0.21330184164891544"/><circle stroke="white" stroke-width="1" cx="154.76190476190476" cy="11.904761904761905" r="-4.515589524345946"/><circle stroke="white" stroke-width="1" cx="178.57142857142858" cy="11.904761904761905" r="-1.792187620174264"/><circle stroke="white" stroke-width="1" cx="202.38095238095238" cy="11.904761904761905" r="-0.9432844329790863"/><circle stroke="white" stroke-width="1" cx="226.19047619047618" cy="11.904761904761905" r="-0.24895404519171183"/><circle stroke="white" stroke-width="1" cx="250.0" cy="11.904761904761905" r="-0.5855629100766313"/><circle stroke="white" stroke-width="1" cx="273.80952380952385" cy="11.904761904761905" r="-1.2839523181806365"/><circle stroke="white" stroke-width="1" cx="297.61904761904765" cy="11.904761904761905" r="-6.8327953371800145"/><circle stroke="white" stroke-width="1" cx="321.42857142857144" cy="11.904761904761905" r="-3.746649245899974"/><circle stroke="white" stroke-width="1" cx="345.2380952380953" cy="11.904761904761905" r="-2.5348812845676836"/><circle stroke="white" stroke-width="1" cx="369.0476190476191" cy="11.904761904761905" r="2.7745070342825437"/><circle stroke="white" stroke-width="1" cx="392.8571428571429" cy="11.904761904761905" r="4.1047345542280596"/><circle stroke="white" stroke-width="1" cx="416.6666666666667" cy="11.904761904761905" r="-6.339312794112785"/><circle stroke="white" stroke-width="1" cx="440.4761904761905" cy="11.904761904761905" r="5.4506723484878306"/><circle stroke="white" stroke-width="1" cx="464.28571428571433" cy="11.904761904761905" r="-4.81317789528251"/><circle stroke="white" stroke-width="1" cx="11.904761904761905" cy="35.714285714285715" r="-1.7577060137339109"/><circle stroke="white" stroke-width="1" cx="35.714285714285715" cy="35.714285714285715" r="5.149704738415569"/><circle stroke="white" stroke-width="1" cx="59.523809523809526" cy="35.714285714285715" r="5.784497023694489"/><circle stroke="white" stroke-width="1" cx="83.33333333333334" cy="35.714285714285715" r="-5.623525330472369"/><circle stroke="white" stroke-width="1" cx="107.14285714285714" cy="35.714285714285715" r="-1.9037069549261436"/><circle stroke="white" stroke-width="1" cx="130.95238095238096" cy="35.714285714285715" r="-6.066065866720269"/><circle stroke="white" stroke-width="1" cx="154.76190476190476" cy="35.714285714285715" r="7.10345243327711"/><circle stroke="white" stroke-width="1" cx="178.57142857142858" cy="35.714285714285715" r="1.3589673908583366"/><circle stroke="white" stroke-width="1" cx="202.38095238095238" cy="35.714285714285715" r="2.6862548381438387"/><circle stroke="white" stroke-width="1" cx="226.19047619047618" cy="35.714285714285715" r="2.2474162795689794"/><circle stroke="white" stroke-width="1" cx="250.0" cy="35.714285714285715" r="-1.1678083211111876"/><circle stroke="white" stroke-width="1" cx="273.80952380952385" cy="35.714285714285715" r="-5.5640656671676565"/><circle stroke="white" stroke-width="1" cx="297.61904761904765" cy="35.714285714285715" r="-1.4038259424588073"/><circle stroke="white" stroke-width="1" cx="321.42857142857144" cy="35.714285714285715" r="0.3172131059452342"/><circle stroke="white" stroke-width="1" cx="345.2380952380953" cy="35.714285714285715" r="2.6883910858068254"/><circle stroke="white" stroke-width="1" cx="369.0476190476191" cy="35.714285714285715" r="-5.95832219452835"/><circle stroke="white" stroke-width="1" cx="392.8571428571429" cy="35.714285714285715" r="2.7277407559446676"/><circle stroke="white" stroke-width="1" cx="416.6666666666667" cy="35.714285714285715" r="-8.772143005427283"/><circle stroke="white" stroke-width="1" cx="440.4761904761905" cy="35.714285714285715" r="-9.140424374032266"/><circle stroke="white" stroke-width="1" cx="464.28571428571433" cy="35.714285714285715" r="-0.7680387639589364"/><circle stroke="white" stroke-width="1" cx="11.904761904761905" cy="59.523809523809526" r="3.212371845501433"/><circle stroke="white" stroke-width="1" cx="35.714285714285715" cy="59.523809523809526" r="12.52680663617255"/><circle stroke="white" stroke-width="1" cx="59.523809523809526" cy="59.523809523809526" r="-3.3140486559434503"/><circle stroke="white" stroke-width="1" cx="83.33333333333334" cy="59.523809523809526" r="-0.5454835500834863"/><circle stroke="white" stroke-width="1" cx="107.14285714285714" cy="59.523809523809526" r="2.7665912087625735"/><circle stroke="white" stroke-width="1" cx="130.95238095238096" cy="59.523809523809526" r="8.490878332062767"/><circle stroke="white" stroke-width="1" cx="154.76190476190476" cy="59.523809523809526" r="-4.926902643949093"/><circle stroke="white" stroke-width="1" cx="178.57142857142858" cy="59.523809523809526" r="-5.949855449173967"/><circle stroke="white" stroke-width="1" cx="202.38095238095238" cy="59.523809523809526" r="4.8241784104392265"/><circle stroke="white" stroke-width="1" cx="226.19047619047618" cy="59.523809523809526" r="-3.0606320010283903"/><circle stroke="white" stroke-width="1" cx="250.0" cy="59.523809523809526" r="-4.884115754243206"/><circle stroke="white" stroke-width="1" cx="273.80952380952385" cy="59.523809523809526" r="-1.960475042459068"/><circle stroke="white" stroke-width="1" cx="297.61904761904765" cy="59.523809523809526" r="2.483457721474988"/><circle stroke="white" stroke-width="1" cx="321.42857142857144" cy="59.523809523809526" r="7.39343495622861"/><circle stroke="white" stroke-width="1" cx="345.2380952380953" cy="59.523809523809526" r="-5.307871170423572"/><circle stroke="white" stroke-width="1" cx="369.0476190476191" cy="59.523809523809526" r="4.827514743359466"/><circle stroke="white" stroke-width="1" cx="392.8571428571429" cy="59.523809523809526" r="-4.889203439265697"/><circle stroke="white" stroke-width="1" cx="416.6666666666667" cy="59.523809523809526" r="4.5384426091242664"/><circle stroke="white" stroke-width="1" cx="440.4761904761905" cy="59.523809523809526" r="-2.4459735552845685"/><circle stroke="white" stroke-width="1" cx="464.28571428571433" cy="59.523809523809526" r="1.3881537745997239"/><circle stroke="white" stroke-width="1" cx="11.904761904761905" cy="83.33333333333334" r="0.17526247637667872"/><circle stroke="white" stroke-width="1" cx="35.714285714285715" cy="83.33333333333334" r="-2.748835590848238"/><circle stroke="white" stroke-width="1" cx="59.523809523809526" cy="83.33333333333334" r="-0.6810127061139686"/><circle stroke="white" stroke-width="1" cx="83.33333333333334" cy="83.33333333333334" r="-9.383296514106377"/><circle stroke="white" stroke-width="1" cx="107.14285714285714" cy="83.33333333333334" r="-2.7216638402600988"/><circle stroke="white" stroke-width="1" cx="130.95238095238096" cy="83.33333333333334" r="2.132180692868259"/><circle stroke="white" stroke-width="1" cx="154.76190476190476" cy="83.33333333333334" r="7.229256963463649"/><circle stroke="white" stroke-width="1" cx="178.57142857142858" cy="83.33333333333334" r="-2.1535532124982373"/><circle stroke="white" stroke-width="1" cx="202.38095238095238" cy="83.33333333333334" r="3.496314094119133"/><circle stroke="white" stroke-width="1" cx="226.19047619047618" cy="83.33333333333334" r="-2.890450682304815"/><circle stroke="white" stroke-width="1" cx="250.0" cy="83.33333333333334" r="-0.4628401497679734"/><circle stroke="white" stroke-width="1" cx="273.80952380952385" cy="83.33333333333334" r="1.978920017325464"/><circle stroke="white" stroke-width="1" cx="297.61904761904765" cy="83.33333333333334" r="0.26214599209034534"/><circle stroke="white" stroke-width="1" cx="321.42857142857144" cy="83.33333333333334" r="0.19833816002011864"/><circle stroke="white" stroke-width="1" cx="345.2380952380953" cy="83.33333333333334" r="-3.0546930430110115"/><circle stroke="white" stroke-width="1" cx="369.0476190476191" cy="83.33333333333334" r="-6.908538550448792"/><circle stroke="white" stroke-width="1" cx="392.8571428571429" cy="83.33333333333334" r="-5.5606516461232465"/><circle stroke="white" stroke-width="1" cx="416.6666666666667" cy="83.33333333333334" r="0.6618927422716855"/><circle stroke="white" stroke-width="1" cx="440.4761904761905" cy="83.33333333333334" r="-3.2827699479524406"/><circle stroke="white" stroke-width="1" cx="464.28571428571433" cy="83.33333333333334" r="0.023042275831194472"/><circle stroke="white" stroke-width="1" cx="11.904761904761905" cy="107.14285714285714" r="-0.21977518396502532"/><circle stroke="white" stroke-width="1" cx="35.714285714285715" cy="107.14285714285714" r="-0.7917508916031385"/><circle stroke="white" stroke-width="1" cx="59.523809523809526" cy="107.14285714285714" r="8.94064975608317"/><circle stroke="white" stroke-width="1" cx="83.33333333333334" cy="107.14285714285714" r="1.8438883207554295"/><circle stroke="white" stroke-width="1" cx="107.14285714285714" cy="107.14285714285714" r="3.0497629996701767"/><circle stroke="white" stroke-width="1" cx="130.95238095238096" cy="107.14285714285714" r="-0.052860304915896"/><circle stroke="white" stroke-width="1" cx="154.76190476190476" cy="107.14285714285714" r="-5.878668729488377"/><circle stroke="white" stroke-width="1" cx="178.57142857142858" cy="107.14285714285714" r="3.1420000851881706"/><circle stroke="white" stroke-width="1" cx="202.38095238095238" cy="107.14285714285714" r="3.6286241503369854"/><circle stroke="white" stroke-width="1" cx="226.19047619047618" cy="107.14285714285714" r="-3.29155003879066"/><circle stroke="white" stroke-width="1" cx="250.0" cy="107.14285714285714" r="-2.1883420621944527"/><circle stroke="white" stroke-width="1" cx="273.80952380952385" cy="107.14285714285714" r="2.2721064339761883"/><circle stroke="white" stroke-width="1" cx="297.61904761904765" cy="107.14285714285714" r="5.68744143495851"/><circle stroke="white" stroke-width="1" cx="321.42857142857144" cy="107.14285714285714" r="1.2682030024210265"/><circle stroke="white" stroke-width="1" cx="345.2380952380953" cy="107.14285714285714" r="4.779567087669422"/><circle stroke="white" stroke-width="1" cx="369.0476190476191" cy="107.14285714285714" r="-0.5860067301034463"/><circle stroke="white" stroke-width="1" cx="392.8571428571429" cy="107.14285714285714" r="-3.34863397262256"/><circle stroke="white" stroke-width="1" cx="416.6666666666667" cy="107.14285714285714" r="-4.118436127890827"/><circle stroke="white" stroke-width="1" cx="440.4761904761905" cy="107.14285714285714" r="4.470083947647993"/><circle stroke="white" stroke-width="1" cx="464.28571428571433" cy="107.14285714285714" r="5.917271657054413"/><circle stroke="white" stroke-width="1" cx="11.904761904761905" cy="130.95238095238096" r="-0.7651945374310531"/><circle stroke="white" stroke-width="1" cx="35.714285714285715" cy="130.95238095238096" r="-0.03924655423749815"/><circle stroke="white" stroke-width="1" cx="59.523809523809526" cy="130.95238095238096" r="0.1042093262562824"/><circle stroke="white" stroke-width="1" cx="83.33333333333334" cy="130.95238095238096" r="3.798900156860677"/><circle stroke="white" stroke-width="1" cx="107.14285714285714" cy="130.95238095238096" r="0.37283152384593743"/><circle stroke="white" stroke-width="1" cx="130.95238095238096" cy="130.95238095238096" r="-0.5224119700325928"/><circle stroke="white" stroke-width="1" cx="154.76190476190476" cy="130.95238095238096" r="-1.4719432840485587"/><circle stroke="white" stroke-width="1" cx="178.57142857142858" cy="130.95238095238096" r="6.487589180750184"/><circle stroke="white" stroke-width="1" cx="202.38095238095238" cy="130.95238095238096" r="-4.4022399524073865"/><circle stroke="white" stroke-width="1" cx="226.19047619047618" cy="130.95238095238096" r="0.7876429850480313"/><circle stroke="white" stroke-width="1" cx="250.0" cy="130.95238095238096" r="0.6464679434475532"/><circle stroke="white" stroke-width="1" cx="273.80952380952385" cy="130.95238095238096" r="1.7962415831343428"/><circle stroke="white" stroke-width="1" cx="297.61904761904765" cy="130.95238095238096" r="-0.31368725251921303"/><circle stroke="white" stroke-width="1" cx="321.42857142857144" cy="130.95238095238096" r="0.9952828998667658"/><circle stroke="white" stroke-width="1" cx="345.2380952380953" cy="130.95238095238096" r="1.1582110126981489"/><circle stroke="white" stroke-width="1" cx="369.0476190476191" cy="130.95238095238096" r="-0.36634543198323705"/><circle stroke="white" stroke-width="1" cx="392.8571428571429" cy="130.95238095238096" r="-0.8902689029646305"/><circle stroke="white" stroke-width="1" cx="416.6666666666667" cy="130.95238095238096" r="6.942808100788115"/><circle stroke="white" stroke-width="1" cx="440.4761904761905" cy="130.95238095238096" r="-0.8869390039682845"/><circle stroke="white" stroke-width="1" cx="464.28571428571433" cy="130.95238095238096" r="3.0595167287171376"/><circle stroke="white" stroke-width="1" cx="11.904761904761905" cy="154.76190476190476" r="-1.745645701932362"/><circle stroke="white" stroke-width="1" cx="35.714285714285715" cy="154.76190476190476" r="-1.1098535120325403"/><circle stroke="white" stroke-width="1" cx="59.523809523809526" cy="154.76190476190476" r="-4.00852438488152"/><circle stroke="white" stroke-width="1" cx="83.33333333333334" cy="154.76190476190476" r="4.548583414108632"/><circle stroke="white" stroke-width="1" cx="107.14285714285714" cy="154.76190476190476" r="3.7716428106607096"/><circle stroke="white" stroke-width="1" cx="130.95238095238096" cy="154.76190476190476" r="-5.924270965017308"/><circle stroke="white" stroke-width="1" cx="154.76190476190476" cy="154.76190476190476" r="-0.40193198428638105"/><circle stroke="white" stroke-width="1" cx="178.57142857142858" cy="154.76190476190476" r="-0.26920791024310203"/><circle stroke="white" stroke-width="1" cx="202.38095238095238" cy="154.76190476190476" r="-3.3191307291311865"/><circle stroke="white" stroke-width="1" cx="226.19047619047618" cy="154.76190476190476" r="0.6629836055596009"/><circle stroke="white" stroke-width="1" cx="250.0" cy="154.76190476190476" r="2.337931191753216"/><circle stroke="white" stroke-width="1" cx="273.80952380952385" cy="154.76190476190476" r="-4.800714056083248"/><circle stroke="white" stroke-width="1" cx="297.61904761904765" cy="154.76190476190476" r="-0.4398474967550373"/><circle stroke="white" stroke-width="1" cx="321.42857142857144" cy="154.76190476190476" r="9.659959515000178"/><circle stroke="white" stroke-width="1" cx="345.2380952380953" cy="154.76190476190476" r="-1.6661578816159062"/><circle stroke="white" stroke-width="1" cx="369.0476190476191" cy="154.76190476190476" r="4.681858479351693"/><circle stroke="white" stroke-width="1" cx="392.8571428571429" cy="154.76190476190476" r="6.736937385581619"/><circle stroke="white" stroke-width="1" cx="416.6666666666667" cy="154.76190476190476" r="4.278709947755297"/><circle stroke="white" stroke-width="1" cx="440.4761904761905" cy="154.76190476190476" r="9.077030564180067"/><circle stroke="white" stroke-width="1" cx="464.28571428571433" cy="154.76190476190476" r="-1.9894755786672447"/><circle stroke="white" stroke-width="1" cx="11.904761904761905" cy="178.57142857142858" r="-1.4169113053615667"/><circle stroke="white" stroke-width="1" cx="35.714285714285715" cy="178.57142857142858" r="4.476840053002693"/><circle stroke="white" stroke-width="1" cx="59.523809523809526" cy="178.57142857142858" r="-1.66362368253148"/><circle stroke="white" stroke-width="1" cx="83.33333333333334" cy="178.57142857142858" r="-1.647477951040445"/><circle stroke="white" stroke-width="1" cx="107.14285714285714" cy="178.57142857142858" r="-4.978520746241127"/><circle stroke="white" stroke-width="1" cx="130.95238095238096" cy="178.57142857142858" r="-0.4964398685172082"/><circle stroke="white" stroke-width="1" cx="154.76190476190476" cy="178.57142857142858" r="-4.63356677127845"/><circle stroke="white" stroke-width="1" cx="178.57142857142858" cy="178.57142857142858" r="3.440351383787573"/><circle stroke="white" stroke-width="1" cx="202.38095238095238" cy="178.57142857142858" r="-0.9880973214354721"/><circle stroke="white" stroke-width="1" cx="226.19047619047618" cy="178.57142857142858" r="1.9706841497825578"/><circle stroke="white" stroke-width="1" cx="250.0" cy="178.57142857142858" r="-0.12788779214191867"/><circle stroke="white" stroke-width="1" cx="273.80952380952385" cy="178.57142857142858" r="3.67219202471431"/><circle stroke="white" stroke-width="1" cx="297.61904761904765" cy="178.57142857142858" r="0.8748996070932944"/><circle stroke="white" stroke-width="1" cx="321.42857142857144" cy="178.57142857142858" r="7.638318606819391"/><circle stroke="white" stroke-width="1" cx="345.2380952380953" cy="178.57142857142858" r="-6.957391531123839"/><circle stroke="white" stroke-width="1" cx="369.0476190476191" cy="178.57142857142858" r="4.764991767955742"/><circle stroke="white" stroke-width="1" cx="392.8571428571429" cy="178.57142857142858" r="-2.7415816495469554"/><circle stroke="white" stroke-width="1" cx="416.6666666666667" cy="178.57142857142858" r="6.159092447418228"/><circle stroke="white" stroke-width="1" cx="440.4761904761905" cy="178.57142857142858" r="-5.6849189221222485"/><circle stroke="white" stroke-width="1" cx="464.28571428571433" cy="178.57142857142858" r="0.7754591492215138"/><circle stroke="white" stroke-width="1" cx="11.904761904761905" cy="202.38095238095238" r="-3.639741723225206"/><circle stroke="white" stroke-width="1" cx="35.714285714285715" cy="202.38095238095238" r="-0.8478373292051211"/><circle stroke="white" stroke-width="1" cx="59.523809523809526" cy="202.38095238095238" r="1.9354617713853504"/><circle stroke="white" stroke-width="1" cx="83.33333333333334" cy="202.38095238095238" r="1.7896062945609268"/><circle stroke="white" stroke-width="1" cx="107.14285714285714" cy="202.38095238095238" r="-0.06076799585988287"/><circle stroke="white" stroke-width="1" cx="130.95238095238096" cy="202.38095238095238" r="-1.106159886320764"/><circle stroke="white" stroke-width="1" cx="154.76190476190476" cy="202.38095238095238" r="-2.191003617125849"/><circle stroke="white" stroke-width="1" cx="178.57142857142858" cy="202.38095238095238" r="-5.526311021037039"/><circle stroke="white" stroke-width="1" cx="202.38095238095238" cy="202.38095238095238" r="-11.503057069894307"/><circle stroke="white" stroke-width="1" cx="226.19047619047618" cy="202.38095238095238" r="0.6245653221846829"/><circle stroke="white" stroke-width="1" cx="250.0" cy="202.38095238095238" r="-9.344058797412577"/><circle stroke="white" stroke-width="1" cx="273.80952380952385" cy="202.38095238095238" r="0.1377772347463948"/><circle stroke="white" stroke-width="1" cx="297.61904761904765" cy="202.38095238095238" r="-1.3429485418099085"/><circle stroke="white" stroke-width="1" cx="321.42857142857144" cy="202.38095238095238" r="-4.917199570047921"/><circle stroke="white" stroke-width="1" cx="345.2380952380953" cy="202.38095238095238" r="5.281836642670898"/><circle stroke="white" stroke-width="1" cx="369.0476190476191" cy="202.38095238095238" r="2.9233117774560005"/><circle stroke="white" stroke-width="1" cx="392.8571428571429" cy="202.38095238095238" r="2.2708032483235367"/><circle stroke="white" stroke-width="1" cx="416.6666666666667" cy="202.38095238095238" r="-4.500411946275998"/><circle stroke="white" stroke-width="1" cx="440.4761904761905" cy="202.38095238095238" r="-0.3252665838094094"/><circle stroke="white" stroke-width="1" cx="464.28571428571433" cy="202.38095238095238" r="-4.049725440436154"/><circle stroke="white" stroke-width="1" cx="11.904761904761905" cy="226.19047619047618" r="1.9714799886056424"/><circle stroke="white" stroke-width="1" cx="35.714285714285715" cy="226.19047619047618" r="2.83626998329693"/><circle stroke="white" stroke-width="1" cx="59.523809523809526" cy="226.19047619047618" r="4.611912963555677"/><circle stroke="white" stroke-width="1" cx="83.33333333333334" cy="226.19047619047618" r="1.0855532653246363"/><circle stroke="white" stroke-width="1" cx="107.14285714285714" cy="226.19047619047618" r="2.6906186996983705"/><circle stroke="white" stroke-width="1" cx="130.95238095238096" cy="226.19047619047618" r="-5.2349521573204925"/><circle stroke="white" stroke-width="1" cx="154.76190476190476" cy="226.19047619047618" r="-2.866845772333959"/><circle stroke="white" stroke-width="1" cx="178.57142857142858" cy="226.19047619047618" r="-3.994213434942123"/><circle stroke="white" stroke-width="1" cx="202.38095238095238" cy="226.19047619047618" r="2.547405973699201"/><circle stroke="white" stroke-width="1" cx="226.19047619047618" cy="226.19047619047618" r="3.2793259626191413"/><circle stroke="white" stroke-width="1" cx="250.0" cy="226.19047619047618" r="1.4150946089053178"/><circle stroke="white" stroke-width="1" cx="273.80952380952385" cy="226.19047619047618" r="-4.659032845680352"/><circle stroke="white" stroke-width="1" cx="297.61904761904765" cy="226.19047619047618" r="-0.7991654722308943"/><circle stroke="white" stroke-width="1" cx="321.42857142857144" cy="226.19047619047618" r="-5.977928147150599"/><circle stroke="white" stroke-width="1" cx="345.2380952380953" cy="226.19047619047618" r="-6.339323072561211"/><circle stroke="white" stroke-width="1" cx="369.0476190476191" cy="226.19047619047618" r="-3.1540168124662964"/><circle stroke="white" stroke-width="1" cx="392.8571428571429" cy="226.19047619047618" r="-1.6645191912074033"/><circle stroke="white" stroke-width="1" cx="416.6666666666667" cy="226.19047619047618" r="5.343594110851362"/><circle stroke="white" stroke-width="1" cx="440.4761904761905" cy="226.19047619047618" r="-5.127844349404538"/><circle stroke="white" stroke-width="1" cx="464.28571428571433" cy="226.19047619047618" r="-8.941712423701558"/><circle stroke="white" stroke-width="1" cx="11.904761904761905" cy="250.0" r="-0.26690035571761783"/><circle stroke="white" stroke-width="1" cx="35.714285714285715" cy="250.0" r="4.919291388750282"/><circle stroke="white" stroke-width="1" cx="59.523809523809526" cy="250.0" r="0.8494439895145497"/><circle stroke="white" stroke-width="1" cx="83.33333333333334" cy="250.0" r="-0.7398119119501377"/><circle stroke="white" stroke-width="1" cx="107.14285714285714" cy="250.0" r="-1.5163437345148758"/><circle stroke="white" stroke-width="1" cx="130.95238095238096" cy="250.0" r="-0.3851606002730346"/><circle stroke="white" stroke-width="1" cx="154.76190476190476" cy="250.0" r="0.48666545459451704"/><circle stroke="white" stroke-width="1" cx="178.57142857142858" cy="250.0" r="-1.8378670360452585"/><circle stroke="white" stroke-width="1" cx="202.38095238095238" cy="250.0" r="-8.742741188665779"/><circle stroke="white" stroke-width="1" cx="226.19047619047618" cy="250.0" r="-3.4581493694959"/><circle stroke="white" stroke-width="1" cx="250.0" cy="250.0" r="0.0"/><circle stroke="white" stroke-width="1" cx="273.80952380952385" cy="250.0" r="-0.09187799242616618"/><circle stroke="white" stroke-width="1" cx="297.61904761904765" cy="250.0" r="-1.1514386030950359"/><circle stroke="white" stroke-width="1" cx="321.42857142857144" cy="250.0" r="-2.4682336239575093"/><circle stroke="white" stroke-width="1" cx="345.2380952380953" cy="250.0" r="0.36134191839289825"/><circle stroke="white" stroke-width="1" cx="369.0476190476191" cy="250.0" r="-0.9906535133491754"/><circle stroke="white" stroke-width="1" cx="392.8571428571429" cy="250.0" r="0.8236254217325445"/><circle stroke="white" stroke-width="1" cx="416.6666666666667" cy="250.0" r="6.999556656935026"/><circle stroke="white" stroke-width="1" cx="440.4761904761905" cy="250.0" r="-1.230359659166553"/><circle stroke="white" stroke-width="1" cx="464.28571428571433" cy="250.0" r="-4.967633454184625"/><circle stroke="white" stroke-width="1" cx="11.904761904761905" cy="273.80952380952385" r="-4.6801580887498915"/><circle stroke="white" stroke-width="1" cx="35.714285714285715" cy="273.80952380952385" r="4.178432085797395"/><circle stroke="white" stroke-width="1" cx="59.523809523809526" cy="273.80952380952385" r="-5.56268631520387"/><circle stroke="white" stroke-width="1" cx="83.33333333333334" cy="273.80952380952385" r="-2.906391322425398"/><circle stroke="white" stroke-width="1" cx="107.14285714285714" cy="273.80952380952385" r="-0.756749572162348"/><circle stroke="white" stroke-width="1" cx="130.95238095238096" cy="273.80952380952385" r="-0.3197074280493263"/><circle stroke="white" stroke-width="1" cx="154.76190476190476" cy="273.80952380952385" r="5.354787589571576"/><circle stroke="white" stroke-width="1" cx="178.57142857142858" cy="273.80952380952385" r="5.320610372568625"/><circle stroke="white" stroke-width="1" cx="202.38095238095238" cy="273.80952380952385" r="-3.563243571973629"/><circle stroke="white" stroke-width="1" cx="226.19047619047618" cy="273.80952380952385" r="-5.042780818626746"/><circle stroke="white" stroke-width="1" cx="250.0" cy="273.80952380952385" r="-2.09320728833756"/><circle stroke="white" stroke-width="1" cx="273.80952380952385" cy="273.80952380952385" r="1.1852387033870608"/><circle stroke="white" stroke-width="1" cx="297.61904761904765" cy="273.80952380952385" r="3.947282215624471"/><circle stroke="white" stroke-width="1" cx="321.42857142857144" cy="273.80952380952385" r="1.9598839611465129"/><circle stroke="white" stroke-width="1" cx="345.2380952380953" cy="273.80952380952385" r="2.592187535929797"/><circle stroke="white" stroke-width="1" cx="369.0476190476191" cy="273.80952380952385" r="1.216638540734342"/><circle stroke="white" stroke-width="1" cx="392.8571428571429" cy="273.80952380952385" r="3.3567638823523063"/><circle stroke="white" stroke-width="1" cx="416.6666666666667" cy="273.80952380952385" r="0.5937159671689736"/><circle stroke="white" stroke-width="1" cx="440.4761904761905" cy="273.80952380952385" r="0.5196871766056746"/><circle stroke="white" stroke-width="1" cx="464.28571428571433" cy="273.80952380952385" r="4.3002362064407045"/><circle stroke="white" stroke-width="1" cx="11.904761904761905" cy="297.61904761904765" r="-5.7856156611432965"/><circle stroke="white" stroke-width="1" cx="35.714285714285715" cy="297.61904761904765" r="-5.265901648079903"/><circle stroke="white" stroke-width="1" cx="59.523809523809526" cy="297.61904761904765" r="3.2958873094864742"/><circle stroke="white" stroke-width="1" cx="83.33333333333334" cy="297.61904761904765" r="-8.417694120167262"/><circle stroke="white" stroke-width="1" cx="107.14285714285714" cy="297.61904761904765" r="-4.692007271411352"/><circle stroke="white" stroke-width="1" cx="130.95238095238096" cy="297.61904761904765" r="-0.5511083846038338"/><circle stroke="white" stroke-width="1" cx="154.76190476190476" cy="297.61904761904765" r="-1.9094077633194704"/><circle stroke="white" stroke-width="1" cx="178.57142857142858" cy="297.61904761904765" r="-4.6110359652341755"/><circle stroke="white" stroke-width="1" cx="202.38095238095238" cy="297.61904761904765" r="7.423027396674196"/><circle stroke="white" stroke-width="1" cx="226.19047619047618" cy="297.61904761904765" r="-2.7235926453627153"/><circle stroke="white" stroke-width="1" cx="250.0" cy="297.61904761904765" r="-2.64687394931348"/><circle stroke="white" stroke-width="1" cx="273.80952380952385" cy="297.61904761904765" r="5.370079217375917"/><circle stroke="white" stroke-width="1" cx="297.61904761904765" cy="297.61904761904765" r="-0.6265196181379651"/><circle stroke="white" stroke-width="1" cx="321.42857142857144" cy="297.61904761904765" r="1.4238513680556033"/><circle stroke="white" stroke-width="1" cx="345.2380952380953" cy="297.61904761904765" r="6.568676887745119"/><circle stroke="white" stroke-width="1" cx="369.0476190476191" cy="297.61904761904765" r="9.209651434501104"/><circle stroke="white" stroke-width="1" cx="392.8571428571429" cy="297.61904761904765" r="-6.967819203165176"/><circle stroke="white" stroke-width="1" cx="416.6666666666667" cy="297.61904761904765" r="-4.362568840172669"/><circle stroke="white" stroke-width="1" cx="440.4761904761905" cy="297.61904761904765" r="-5.849834830910641"/><circle stroke="white" stroke-width="1" cx="464.28571428571433" cy="297.61904761904765" r="-2.6030128943469277"/><circle stroke="white" stroke-width="1" cx="11.904761904761905" cy="321.42857142857144" r="-7.321813802826763"/><circle stroke="white" stroke-width="1" cx="35.714285714285715" cy="321.42857142857144" r="-0.771954939408398"/><circle stroke="white" stroke-width="1" cx="59.523809523809526" cy="321.42857142857144" r="-0.4766427682442437"/><circle stroke="white" stroke-width="1" cx="83.33333333333334" cy="321.42857142857144" r="2.693780638559608"/><circle stroke="white" stroke-width="1" cx="107.14285714285714" cy="321.42857142857144" r="0.33298026184214974"/><circle stroke="white" stroke-width="1" cx="130.95238095238096" cy="321.42857142857144" r="8.616316776486006"/><circle stroke="white" stroke-width="1" cx="154.76190476190476" cy="321.42857142857144" r="0.21492244369163221"/><circle stroke="white" stroke-width="1" cx="178.57142857142858" cy="321.42857142857144" r="5.699599651141613"/><circle stroke="white" stroke-width="1" cx="202.38095238095238" cy="321.42857142857144" r="3.776256438745991"/><circle stroke="white" stroke-width="1" cx="226.19047619047618" cy="321.42857142857144" r="-4.670633679307797"/><circle stroke="white" stroke-width="1" cx="250.0" cy="321.42857142857144" r="-0.9156341791349772"/><circle stroke="white" stroke-width="1" cx="273.80952380952385" cy="321.42857142857144" r="7.6807320311173655"/><circle stroke="white" stroke-width="1" cx="297.61904761904765" cy="321.42857142857144" r="-7.234150370756145"/><circle stroke="white" stroke-width="1" cx="321.42857142857144" cy="321.42857142857144" r="0.4709037276348539"/><circle stroke="white" stroke-width="1" cx="345.2380952380953" cy="321.42857142857144" r="1.775407609173282"/><circle stroke="white" stroke-width="1" cx="369.0476190476191" cy="321.42857142857144" r="-3.6532942917455578"/><circle stroke="white" stroke-width="1" cx="392.8571428571429" cy="321.42857142857144" r="2.6909723769617133"/><circle stroke="white" stroke-width="1" cx="416.6666666666667" cy="321.42857142857144" r="11.009886138194506"/><circle stroke="white" stroke-width="1" cx="440.4761904761905" cy="321.42857142857144" r="-7.377957224655707"/><circle stroke="white" stroke-width="1" cx="464.28571428571433" cy="321.42857142857144" r="4.519210755362866"/><circle stroke="white" stroke-width="1" cx="11.904761904761905" cy="345.2380952380953" r="4.492109184610114"/><circle stroke="white" stroke-width="1" cx="35.714285714285715" cy="345.2380952380953" r="-3.7145617591633266"/><circle stroke="white" stroke-width="1" cx="59.523809523809526" cy="345.2380952380953" r="-3.4964401223389845"/><circle stroke="white" stroke-width="1" cx="83.33333333333334" cy="345.2380952380953" r="-3.797994789258348"/><circle stroke="white" stroke-width="1" cx="107.14285714285714" cy="345.2380952380953" r="3.7633698451873348"/><circle stroke="white" stroke-width="1" cx="130.95238095238096" cy="345.2380952380953" r="-3.946409541494168"/><circle stroke="white" stroke-width="1" cx="154.76190476190476" cy="345.2380952380953" r="2.146334831300264"/><circle stroke="white" stroke-width="1" cx="178.57142857142858" cy="345.2380952380953" r="6.458582761804326"/><circle stroke="white" stroke-width="1" cx="202.38095238095238" cy="345.2380952380953" r="-4.678364746220315"/><circle stroke="white" stroke-width="1" cx="226.19047619047618" cy="345.2380952380953" r="-0.7660457928969243"/><circle stroke="white" stroke-width="1" cx="250.0" cy="345.2380952380953" r="2.9611528984293978"/><circle stroke="white" stroke-width="1" cx="273.80952380952385" cy="345.2380952380953" r="-1.1446379541818903"/><circle stroke="white" stroke-width="1" cx="297.61904761904765" cy="345.2380952380953" r="0.6731284673209679"/><circle stroke="white" stroke-width="1" cx="321.42857142857144" cy="345.2380952380953" r="2.1974201422370023"/><circle stroke="white" stroke-width="1" cx="345.2380952380953" cy="345.2380952380953" r="1.5459265110161837"/><circle stroke="white" stroke-width="1" cx="369.0476190476191" cy="345.2380952380953" r="0.1282062801639364"/><circle stroke="white" stroke-width="1" cx="392.8571428571429" cy="345.2380952380953" r="6.5863908374062134"/><circle stroke="white" stroke-width="1" cx="416.6666666666667" cy="345.2380952380953" r="-1.885629484577024"/><circle stroke="white" stroke-width="1" cx="440.4761904761905" cy="345.2380952380953" r="-9.213330242219516"/><circle stroke="white" stroke-width="1" cx="464.28571428571433" cy="345.2380952380953" r="0.016756276511202425"/><circle stroke="white" stroke-width="1" cx="11.904761904761905" cy="369.0476190476191" r="-1.847391476507252"/><circle stroke="white" stroke-width="1" cx="35.714285714285715" cy="369.0476190476191" r="0.2735424576834322"/><circle stroke="white" stroke-width="1" cx="59.523809523809526" cy="369.0476190476191" r="8.613379605206699"/><circle stroke="white" stroke-width="1" cx="83.33333333333334" cy="369.0476190476191" r="-1.9264441324413626"/><circle stroke="white" stroke-width="1" cx="107.14285714285714" cy="369.0476190476191" r="2.4658472934742384"/><circle stroke="white" stroke-width="1" cx="130.95238095238096" cy="369.0476190476191" r="-1.3756547391943226"/><circle stroke="white" stroke-width="1" cx="154.76190476190476" cy="369.0476190476191" r="2.69761545731975"/><circle stroke="white" stroke-width="1" cx="178.57142857142858" cy="369.0476190476191" r="-0.25827549802009836"/><circle stroke="white" stroke-width="1" cx="202.38095238095238" cy="369.0476190476191" r="6.847248253130369"/><circle stroke="white" stroke-width="1" cx="226.19047619047618" cy="369.0476190476191" r="-2.5901583720525925"/><circle stroke="white" stroke-width="1" cx="250.0" cy="369.0476190476191" r="-0.7439483540555266"/><circle stroke="white" stroke-width="1" cx="273.80952380952385" cy="369.0476190476191" r="0.6198943904200054"/><circle stroke="white" stroke-width="1" cx="297.61904761904765" cy="369.0476190476191" r="-2.694358646326048"/><circle stroke="white" stroke-width="1" cx="321.42857142857144" cy="369.0476190476191" r="2.6384148434046426"/><circle stroke="white" stroke-width="1" cx="345.2380952380953" cy="369.0476190476191" r="-0.20324393393807383"/><circle stroke="white" stroke-width="1" cx="369.0476190476191" cy="369.0476190476191" r="0.3318839835170417"/><circle stroke="white" stroke-width="1" cx="392.8571428571429" cy="369.0476190476191" r="-1.1831915727977649"/><circle stroke="white" stroke-width="1" cx="416.6666666666667" cy="369.0476190476191" r="3.9992781325299624"/><circle stroke="white" stroke-width="1" cx="440.4761904761905" cy="369.0476190476191" r="3.47277790553247"/><circle stroke="white" stroke-width="1" cx="464.28571428571433" cy="369.0476190476191" r="2.7655627874822857"/><circle stroke="white" stroke-width="1" cx="11.904761904761905" cy="392.8571428571429" r="-2.0427219997695865"/><circle stroke="white" stroke-width="1" cx="35.714285714285715" cy="392.8571428571429" r="-0.31529259430276846"/><circle stroke="white" stroke-width="1" cx="59.523809523809526" cy="392.8571428571429" r="0.13603061475329756"/><circle stroke="white" stroke-width="1" cx="83.33333333333334" cy="392.8571428571429" r="3.427573057785296"/><circle stroke="white" stroke-width="1" cx="107.14285714285714" cy="392.8571428571429" r="3.3785956239918575"/><circle stroke="white" stroke-width="1" cx="130.95238095238096" cy="392.8571428571429" r="0.0075339216740381324"/><circle stroke="white" stroke-width="1" cx="154.76190476190476" cy="392.8571428571429" r="2.006023205744708"/><circle stroke="white" stroke-width="1" cx="178.57142857142858" cy="392.8571428571429" r="-0.7418272257940786"/><circle stroke="white" stroke-width="1" cx="202.38095238095238" cy="392.8571428571429" r="6.773559648697883"/><circle stroke="white" stroke-width="1" cx="226.19047619047618" cy="392.8571428571429" r="-0.3027258946405032"/><circle stroke="white" stroke-width="1" cx="250.0" cy="392.8571428571429" r="0.17752874756620135"/><circle stroke="white" stroke-width="1" cx="273.80952380952385" cy="392.8571428571429" r="1.7738618770602215"/><circle stroke="white" stroke-width="1" cx="297.61904761904765" cy="392.8571428571429" r="-6.250233832520479"/><circle stroke="white" stroke-width="1" cx="321.42857142857144" cy="392.8571428571429" r="-1.1763304835326034"/><circle stroke="white" stroke-width="1" cx="345.2380952380953" cy="392.8571428571429" r="3.6689794072421464"/><circle stroke="white" stroke-width="1" cx="369.0476190476191" cy="392.8571428571429" r="-1.3705795139983719"/><circle stroke="white" stroke-width="1" cx="392.8571428571429" cy="392.8571428571429" r="-4.12797655965803"/><circle stroke="white" stroke-width="1" cx="416.6666666666667" cy="392.8571428571429" r="4.0506281417252605"/><circle stroke="white" stroke-width="1" cx="440.4761904761905" cy="392.8571428571429" r="-0.3382484885604393"/><circle stroke="white" stroke-width="1" cx="464.28571428571433" cy="392.8571428571429" r="4.195846852420651"/><circle stroke="white" stroke-width="1" cx="11.904761904761905" cy="416.6666666666667" r="-0.27194808549755367"/><circle stroke="white" stroke-width="1" cx="35.714285714285715" cy="416.6666666666667" r="-5.919877603597475"/><circle stroke="white" stroke-width="1" cx="59.523809523809526" cy="416.6666666666667" r="3.5813080074787327"/><circle stroke="white" stroke-width="1" cx="83.33333333333334" cy="416.6666666666667" r="-3.929281538616039"/><circle stroke="white" stroke-width="1" cx="107.14285714285714" cy="416.6666666666667" r="-4.941478000552869"/><circle stroke="white" stroke-width="1" cx="130.95238095238096" cy="416.6666666666667" r="5.774070067202802"/><circle stroke="white" stroke-width="1" cx="154.76190476190476" cy="416.6666666666667" r="-1.2337743183754828"/><circle stroke="white" stroke-width="1" cx="178.57142857142858" cy="416.6666666666667" r="-1.5130817320747032"/><circle stroke="white" stroke-width="1" cx="202.38095238095238" cy="416.6666666666667" r="-0.19000902681655205"/><circle stroke="white" stroke-width="1" cx="226.19047619047618" cy="416.6666666666667" r="-0.04069849511107692"/><circle stroke="white" stroke-width="1" cx="250.0" cy="416.6666666666667" r="-3.567907208397536"/><circle stroke="white" stroke-width="1" cx="273.80952380952385" cy="416.6666666666667" r="3.6937684529464025"/><circle stroke="white" stroke-width="1" cx="297.61904761904765" cy="416.6666666666667" r="-7.142196683134194"/><circle stroke="white" stroke-width="1" cx="321.42857142857144" cy="416.6666666666667" r="-0.39520363944946013"/><circle stroke="white" stroke-width="1" cx="345.2380952380953" cy="416.6666666666667" r="4.229115831153643"/><circle stroke="white" stroke-width="1" cx="369.0476190476191" cy="416.6666666666667" r="4.217985426808249"/><circle stroke="white" stroke-width="1" cx="392.8571428571429" cy="416.6666666666667" r="-8.382742509424572"/><circle stroke="white" stroke-width="1" cx="416.6666666666667" cy="416.6666666666667" r="4.506980772210849"/><circle stroke="white" stroke-width="1" cx="440.4761904761905" cy="416.6666666666667" r="6.518914535955823"/><circle stroke="white" stroke-width="1" cx="464.28571428571433" cy="416.6666666666667" r="-5.686779175144052"/><circle stroke="white" stroke-width="1" cx="11.904761904761905" cy="440.4761904761905" r="1.9716482957241928"/><circle stroke="white" stroke-width="1" cx="35.714285714285715" cy="440.4761904761905" r="1.9243488397132615"/><circle stroke="white" stroke-width="1" cx="59.523809523809526" cy="440.4761904761905" r="9.43526283515082"/><circle stroke="white" stroke-width="1" cx="83.33333333333334" cy="440.4761904761905" r="1.359241234657329"/><circle stroke="white" stroke-width="1" cx="107.14285714285714" cy="440.4761904761905" r="-6.7383212244940855"/><circle stroke="white" stroke-width="1" cx="130.95238095238096" cy="440.4761904761905" r="0.8096090250522675"/><circle stroke="white" stroke-width="1" cx="154.76190476190476" cy="440.4761904761905" r="-5.5933354690503805"/><circle stroke="white" stroke-width="1" cx="178.57142857142858" cy="440.4761904761905" r="-7.93826839095732"/><circle stroke="white" stroke-width="1" cx="202.38095238095238" cy="440.4761904761905" r="0.3409538689545831"/><circle stroke="white" stroke-width="1" cx="226.19047619047618" cy="440.4761904761905" r="5.6037638526317775"/><circle stroke="white" stroke-width="1" cx="250.0" cy="440.4761904761905" r="0.9492184287073029"/><circle stroke="white" stroke-width="1" cx="273.80952380952385" cy="440.4761904761905" r="-4.434685130834496"/><circle stroke="white" stroke-width="1" cx="297.61904761904765" cy="440.4761904761905" r="2.142261365152687"/><circle stroke="white" stroke-width="1" cx="321.42857142857144" cy="440.4761904761905" r="3.5021327304756786"/><circle stroke="white" stroke-width="1" cx="345.2380952380953" cy="440.4761904761905" r="-0.10575414272377182"/><circle stroke="white" stroke-width="1" cx="369.0476190476191" cy="440.4761904761905" r="-3.510031271841146"/><circle stroke="white" stroke-width="1" cx="392.8571428571429" cy="440.4761904761905" r="-8.052077382691689"/><circle stroke="white" stroke-width="1" cx="416.6666666666667" cy="440.4761904761905" r="1.5119021005604427"/><circle stroke="white" stroke-width="1" cx="440.4761904761905" cy="440.4761904761905" r="2.9487478602898927"/><circle stroke="white" stroke-width="1" cx="464.28571428571433" cy="440.4761904761905" r="0.7100804178103772"/><circle stroke="white" stroke-width="1" cx="11.904761904761905" cy="464.28571428571433" r="3.2339798429469555"/><circle stroke="white" stroke-width="1" cx="35.714285714285715" cy="464.28571428571433" r="-1.7179319811795952"/><circle stroke="white" stroke-width="1" cx="59.523809523809526" cy="464.28571428571433" r="-4.823051515276749"/><circle stroke="white" stroke-width="1" cx="83.33333333333334" cy="464.28571428571433" r="-6.008279651652958"/><circle stroke="white" stroke-width="1" cx="107.14285714285714" cy="464.28571428571433" r="-7.929144707311823"/><circle stroke="white" stroke-width="1" cx="130.95238095238096" cy="464.28571428571433" r="-1.3787815145849127"/><circle stroke="white" stroke-width="1" cx="154.76190476190476" cy="464.28571428571433" r="-2.4288288744201756"/><circle stroke="white" stroke-width="1" cx="178.57142857142858" cy="464.28571428571433" r="-6.3995327944959115"/><circle stroke="white" stroke-width="1" cx="202.38095238095238" cy="464.28571428571433" r="5.74915642010191"/><circle stroke="white" stroke-width="1" cx="226.19047619047618" cy="464.28571428571433" r="2.198753869371937"/><circle stroke="white" stroke-width="1" cx="250.0" cy="464.28571428571433" r="-6.833343215922724"/><circle stroke="white" stroke-width="1" cx="273.80952380952385" cy="464.28571428571433" r="7.084277380821962"/><circle stroke="white" stroke-width="1" cx="297.61904761904765" cy="464.28571428571433" r="3.1515882365668433"/><circle stroke="white" stroke-width="1" cx="321.42857142857144" cy="464.28571428571433" r="0.262183134511674"/><circle stroke="white" stroke-width="1" cx="345.2380952380953" cy="464.28571428571433" r="-3.519506791540413"/><circle stroke="white" stroke-width="1" cx="369.0476190476191" cy="464.28571428571433" r="-0.2814730520819802"/><circle stroke="white" stroke-width="1" cx="392.8571428571429" cy="464.28571428571433" r="0.46571730965151986"/><circle stroke="white" stroke-width="1" cx="416.6666666666667" cy="464.28571428571433" r="0.06722513949268985"/><circle stroke="white" stroke-width="1" cx="440.4761904761905" cy="464.28571428571433" r="1.1120460000250152"/><circle stroke="white" stroke-width="1" cx="464.28571428571433" cy="464.28571428571433" r="4.794943250772706"/></svg>