<svg xmlns="http://www.w3.org/2000/svg" width="500" height="500"><circle cx="0" cy="0" r="25" fill="black"/><circle cx="0" cy="25" r="25" fill="black"/><circle cx="0" cy="50" r="25" fill="black"/><circle cx="0" cy="75" r="25" fill="black"/><circle cx="0" cy="100" r="25" fill="black"/><circle cx="0" cy="125" r="25" fill="black"/><circle cx="0" cy="150" r="25" fill="black"/><circle cx="0" cy="175" r="25" fill="black"/><circle cx="0" cy="200" r="25" fill="black"/><circle cx="0" cy="225" r="25" fill="black"/><circle cx="0" cy="250" r="25" fill="black"/><circle cx="0" cy="275" r="25" fill="black"/><circle cx="0" cy="300" r="25" fill="black"/><circle cx="0" cy="325" r="25" fill="black"/><circle cx="0" cy="350" r="25" fill="black"/><circle cx="0" cy="375" r="25" fill="black"/><circle cx="0" cy="400" r="25" fill="black"/><circle cx="0" cy="425" r="25" fill="black"/><circle cx="0" cy="450" r="25" fill="black"/><circle cx="0" cy="475" r="25" fill="black"/><circle cx="0" cy="500" r="25" fill="black"/><circle cx="25" cy="0" r="25" fill="black"/><circle cx="25" cy="25" r="25" fill="black"/><circle cx="25" cy="50" r="25" fill="black"/><circle cx="25" cy="75" r="25" fill="black"/><circle cx="25" cy="100" r="25" fill="black"/><circle cx="25" cy="125" r="25" fill="black"/><circle cx="25" cy="150" r="25" fill="black"/><circle cx="25" cy="175" r="25" fill="black"/><circle cx="25" cy="200" r="25" fill="black"/><circle cx="25" cy="225" r="25" fill="black"/><circle cx="25" cy="250" r="25" fill="black"/><circle cx="25" cy="275" r="25" fill="black"/><circle cx="25" cy="300" r="25" fill="black"/><circle cx="25" cy="325" r="25" fill="black"/><circle cx="25" cy="350" r="25" fill="black"/><circle cx="25" cy="375" r="25" fill="black"/><circle cx="25" cy="400" r="25" fill="black"/><circle cx="25" cy="425" r="25" fill="black"/><circle cx="25" cy="450" r="25" fill="black"/><circle cx="25" cy="475" r="25" fill="black"/><circle cx="25" cy="500" r="25" fill="black"/><circle cx="50" cy="0" r="25" fill="black"/><circle cx="50" cy="25" r="25" fill="black"/><circle cx="50" cy="50" r="25" fill="black"/><circle cx="50" cy="75" r="25" fill="black"/><circle cx="50" cy="100" r="25" fill="black"/><circle cx="50" cy="125" r="25" fill="black"/><circle cx="50" cy="150" r="25" fill="black"/><circle cx="50" cy="175" r="25" fill="black"/><circle cx="50" cy="200" r="25" fill="black"/><circle cx="50" cy="225" r="25" fill="black"/><circle cx="50" cy="250" r="25" fill="black"/><circle cx="50" cy="275" r="25" fill="black"/><circle cx="50" cy="300" r="25" fill="black"/><circle cx="50" cy="325" r="25" fill="black"/><circle cx="50" cy="350" r="25" fill="black"/><circle cx="50" cy="375" r="25" fill="black"/><circle cx="50" cy="400" r="25" fill="black"/><circle cx="50" cy="425" r="25" fill="black"/><circle cx="50" cy="450" r="25" fill="black"/><circle cx="50" cy="475" r="25" fill="black"/><circle cx="50" cy="500" r="25" fill="black"/><circle cx="75" cy="0" r="25" fill="black"/><circle cx="75" cy="25" r="25" fill="black"/><circle cx="75" cy="50" r="25" fill="black"/><circle cx="75" cy="75" r="25" fill="black"/><circle cx="75" cy="100" r="25" fill="black"/><circle cx="75" cy="125" r="25" fill="black"/><circle cx="75" cy="150" r="25" fill="black"/><circle cx="75" cy="175" r="25" fill="black"/><circle cx="75" cy="200" r="25" fill="black"/><circle cx="75" cy="225" r="25" fill="black"/><circle cx="75" cy="250" r="25" fill="black"/><circle cx="75" cy="275" r="25" fill="black"/><circle cx="75" cy="300" r="25" fill="black"/><circle cx="75" cy="325" r="25" fill="black"/><circle cx="75" cy="350" r="25" fill="black"/><circle cx="75" cy="375" r="25" fill="black"/><circle cx="75" cy="400" r="25" fill="black"/><circle cx="75" cy="425" r="25" fill="black"/><circle cx="75" cy="450" r="25" fill="black"/><circle cx="75" cy="475" r="25" fill="black"/><circle cx="75" cy="500" r="25" fill="black"/><circle cx="100" cy="0" r="25" fill="black"/><circle cx="100" cy="25" r="25" fill="black"/><circle cx="100" cy="50" r="25" fill="black"/><circle cx="100" cy="75" r="25" fill="black"/><circle cx="100" cy="100" r="25" fill="black"/><circle cx="100" cy="125" r="25" fill="black"/><circle cx="100" cy="150" r="25" fill="black"/><circle cx="100" cy="175" r="25" fill="black"/><circle cx="100" cy="200" r="25" fill="black"/><circle cx="100" cy="225" r="25" fill="black"/><circle cx="100" cy="250" r="25" fill="black"/><circle cx="100" cy="275" r="25" fill="black"/><circle cx="100" cy="300" r="25" fill="black"/><circle cx="100" cy="325" r="25" fill="black"/><circle cx="100" cy="350" r="25" fill="black"/><circle cx="100" cy="375" r="25" fill="black"/><circle cx="100" cy="400" r="25" fill="black"/><circle cx="100" cy="425" r="25" fill="black"/><circle cx="100" cy="450" r="25" fill="black"/><circle cx="100" cy="475" r="25" fill="black"/><circle cx="100" cy="500" r="25" fill="black"/><circle cx="125" cy="0" r="25" fill="black"/><circle cx="125" cy="25" r="25" fill="black"/><circle cx="125" cy="50" r="25" fill="black"/><circle cx="125" cy="75" r="25" fill="black"/><circle cx="125" cy="100" r="25" fill="black"/><circle cx="125" cy="125" r="25" fill="black"/><circle cx="125" cy="150" r="25" fill="black"/><circle cx="125" cy="175" r="25" fill="black"/><circle cx="125" cy="200" r="25" fill="black"/><circle cx="125" cy="225" r="25" fill="black"/><circle cx="125" cy="250" r="25" fill="black"/><circle cx="125" cy="275" r="25" fill="black"/><circle cx="125" cy="300" r="25" fill="black"/><circle cx="125" cy="325" r="25" fill="black"/><circle cx="125" cy="350" r="25" fill="black"/><circle cx="125" cy="375" r="25" fill="black"/><circle cx="125" cy="400" r="25" fill="black"/><circle cx="125" cy="425" r="25" fill="black"/><circle cx="125" cy="450" r="25" fill="black"/><circle cx="125" cy="475" r="25" fill="black"/><circle cx="125" cy="500" r="25" fill="black"/><circle cx="150" cy="0" r="25" fill="black"/><circle cx="150" cy="25" r="25" fill="black"/><circle cx="150" cy="50" r="25" fill="black"/><circle cx="150" cy="75" r="25" fill="black"/><circle cx="150" cy="100" r="25" fill="black"/><circle cx="150" cy="125" r="25" fill="black"/><circle cx="150" cy="150" r="25" fill="black"/><circle cx="150" cy="175" r="25" fill="black"/><circle cx="150" cy="200" r="25" fill="black"/><circle cx="150" cy="225" r="25" fill="black"/><circle cx="150" cy="250" r="25" fill="black"/><circle cx="150" cy="275" r="25" fill="black"/><circle cx="150" cy="300" r="25" fill="black"/><circle cx="150" cy="325" r="25" fill="black"/><circle cx="150" cy="350" r="25" fill="black"/><circle cx="150" cy="375" r="25" fill="black"/><circle cx="150" cy="400" r="25" fill="black"/><circle cx="150" cy="425" r="25" fill="black"/><circle cx="150" cy="450" r="25" fill="black"/><circle cx="150" cy="475" r="25" fill="black"/><circle cx="150" cy="500" r="25" fill="black"/><circle cx="175" cy="0" r="25" fill="black"/><circle cx="175" cy="25" r="25" fill="black"/><circle cx="175" cy="50" r="25" fill="black"/><circle cx="175" cy="75" r="25" fill="black"/><circle cx="175" cy="100" r="25" fill="black"/><circle cx="175" cy="125" r="25" fill="black"/><circle cx="175" cy="150" r="25" fill="black"/><circle cx="175" cy="175" r="25" fill="black"/><circle cx="175" cy="200" r="25" fill="black"/><circle cx="175" cy="225" r="25" fill="black"/><circle cx="175" cy="250" r="25" fill="black"/><circle cx="175" cy="275" r="25" fill="black"/><circle cx="175" cy="300" r="25" fill="black"/><circle cx="175" cy="325" r="25" fill="black"/><circle cx="175" cy="350" r="25" fill="black"/><circle cx="175" cy="375" r="25" fill="black"/><circle cx="175" cy="400" r="25" fill="black"/><circle cx="175" cy="425" r="25" fill="black"/><circle cx="175" cy="450" r="25" fill="black"/><circle cx="175" cy="475" r="25" fill="black"/><circle cx="175" cy="500" r="25" fill="black"/><circle cx="200" cy="0" r="25" fill="black"/><circle cx="200" cy="25" r="25" fill="black"/><circle cx="200" cy="50" r="25" fill="black"/><circle cx="200" cy="75" r="25" fill="black"/><circle cx="200" cy="100" r="25" fill="black"/><circle cx="200" cy="125" r="25" fill="black"/><circle cx="200" cy="150" r="25" fill="black"/><circle cx="200" cy="175" r="25" fill="black"/><circle cx="200" cy="200" r="25" fill="black"/><circle cx="200" cy="225" r="25" fill="black"/><circle cx="200" cy="250" r="25" fill="black"/><circle cx="200" cy="275" r="25" fill="black"/><circle cx="200" cy="300" r="25" fill="black"/><circle cx="200" cy="325" r="25" fill="black"/><circle cx="200" cy="350" r="25" fill="black"/><circle cx="200" cy="375" r="25" fill="black"/><circle cx="200" cy="400" r="25" fill="black"/><circle cx="200" cy="425" r="25" fill="black"/><circle cx="200" cy="450" r="25" fill="black"/><circle cx="200" cy="475" r="25" fill="black"/><circle cx="200" cy="500" r="25" fill="black"/><circle cx="225" cy="0" r="25" fill="black"/><circle cx="225" cy="25" r="25" fill="black"/><circle cx="225" cy="50" r="25" fill="black"/><circle cx="225" cy="75" r="25" fill="black"/><circle cx="225" cy="100" r="25" fill="black"/><circle cx="225" cy="125" r="25" fill="black"/><circle cx="225" cy="150" r="25" fill="black"/><circle cx="225" cy="175" r="25" fill="black"/><circle cx="225" cy="200" r="25" fill="black"/><circle cx="225" cy="225" r="25" fill="black"/><circle cx="225" cy="250" r="25" fill="black"/><circle cx="225" cy="275" r="25" fill="black"/><circle cx="225" cy="300" r="25" fill="black"/><circle cx="225" cy="325" r="25" fill="black"/><circle cx="225" cy="350" r="25" fill="black"/><circle cx="225" cy="375" r="25" fill="black"/><circle cx="225" cy="400" r="25" fill="black"/><circle cx="225" cy="425" r="25" fill="black"/><circle cx="225" cy="450" r="25" fill="black"/><circle cx="225" cy="475" r="25" fill="black"/><circle cx="225" cy="500" r="25" fill="black"/><circle cx="250" cy="0" r="25" fill="black"/><circle cx="250" cy="25" r="25" fill="black"/><circle cx="250" cy="50" r="25" fill="black"/><circle cx="250" cy="75" r="25" fill="black"/><circle cx="250" cy="100" r="25" fill="black"/><circle cx="250" cy="125" r="25" fill="black"/><circle cx="250" cy="150" r="25" fill="black"/><circle cx="250" cy="175" r="25" fill="black"/><circle cx="250" cy="200" r="25" fill="black"/><circle cx="250" cy="225" r="25" fill="black"/><circle cx="250" cy="250" r="25" fill="black"/><circle cx="250" cy="275" r="25" fill="black"/><circle cx="250" cy="300" r="25" fill="black"/><circle cx="250" cy="325" r="25" fill="black"/><circle cx="250" cy="350" r="25" fill="black"/><circle cx="250" cy="375" r="25" fill="black"/><circle cx="250" cy="400" r="25" fill="black"/><circle cx="250" cy="425" r="25" fill="black"/><circle cx="250" cy="450" r="25" fill="black"/><circle cx="250" cy="475" r="25" fill="black"/><circle cx="250" cy="500" r="25" fill="black"/><circle cx="275" cy="0" r="25" fill="black"/><circle cx="275" cy="25" r="25" fill="black"/><circle cx="275" cy="50" r="25" fill="black"/><circle cx="275" cy="75" r="25" fill="black"/><circle cx="275" cy="100" r="25" fill="black"/><circle cx="275" cy="125" r="25" fill="black"/><circle cx="275" cy="150" r="25" fill="black"/><circle cx="275" cy="175" r="25" fill="black"/><circle cx="275" cy="200" r="25" fill="black"/><circle cx="275" cy="225" r="25" fill="black"/><circle cx="275" cy="250" r="25" fill="black"/><circle cx="275" cy="275" r="25" fill="black"/><circle cx="275" cy="300" r="25" fill="black"/><circle cx="275" cy="325" r="25" fill="black"/><circle cx="275" cy="350" r="25" fill="black"/><circle cx="275" cy="375" r="25" fill="black"/><circle cx="275" cy="400" r="25" fill="black"/><circle cx="275" cy="425" r="25" fill="black"/><circle cx="275" cy="450" r="25" fill="black"/><circle cx="275" cy="475" r="25" fill="black"/><circle cx="275" cy="500" r="25" fill="black"/><circle cx="300" cy="0" r="25" fill="black"/><circle cx="300" cy="25" r="25" fill="black"/><circle cx="300" cy="50" r="25" fill="black"/><circle cx="300" cy="75" r="25" fill="black"/><circle cx="300" cy="100" r="25" fill="black"/><circle cx="300" cy="125" r="25" fill="black"/><circle cx="300" cy="150" r="25" fill="black"/><circle cx="300" cy="175" r="25" fill="black"/><circle cx="300" cy="200" r="25" fill="black"/><circle cx="300" cy="225" r="25" fill="black"/><circle cx="300" cy="250" r="25" fill="black"/><circle cx="300" cy="275" r="25" fill="black"/><circle cx="300" cy="300" r="25" fill="black"/><circle cx="300" cy="325" r="25" fill="black"/><circle cx="300" cy="350" r="25" fill="black"/><circle cx="300" cy="375" r="25" fill="black"/><circle cx="300" cy="400" r="25" fill="black"/><circle cx="300" cy="425" r="25" fill="black"/><circle cx="300" cy="450" r="25" fill="black"/><circle cx="300" cy="475" r="25" fill="black"/><circle cx="300" cy="500" r="25" fill="black"/><circle cx="325" cy="0" r="25" fill="black"/><circle cx="325" cy="25" r="25" fill="black"/><circle cx="325" cy="50" r="25" fill="black"/><circle cx="325" cy="75" r="25" fill="black"/><circle cx="325" cy="100" r="25" fill="black"/><circle cx="325" cy="125" r="25" fill="black"/><circle cx="325" cy="150" r="25" fill="black"/><circle cx="325" cy="175" r="25" fill="black"/><circle cx="325" cy="200" r="25" fill="black"/><circle cx="325" cy="225" r="25" fill="black"/><circle cx="325" cy="250" r="25" fill="black"/><circle cx="325" cy="275" r="25" fill="black"/><circle cx="325" cy="300" r="25" fill="black"/><circle cx="325" cy="325" r="25" fill="black"/><circle cx="325" cy="350" r="25" fill="black"/><circle cx="325" cy="375" r="25" fill="black"/><circle cx="325" cy="400" r="25" fill="black"/><circle cx="325" cy="425" r="25" fill="black"/><circle cx="325" cy="450" r="25" fill="black"/><circle cx="325" cy="475" r="25" fill="black"/><circle cx="325" cy="500" r="25" fill="black"/><circle cx="350" cy="0" r="25" fill="black"/><circle cx="350" cy="25" r="25" fill="black"/><circle cx="350" cy="50" r="25" fill="black"/><circle cx="350" cy="75" r="25" fill="black"/><circle cx="350" cy="100" r="25" fill="black"/><circle cx="350" cy="125" r="25" fill="black"/><circle cx="350" cy="150" r="25" fill="black"/><circle cx="350" cy="175" r="25" fill="black"/><circle cx="350" cy="200" r="25" fill="black"/><circle cx="350" cy="225" r="25" fill="black"/><circle cx="350" cy="250" r="25" fill="black"/><circle cx="350" cy="275" r="25" fill="black"/><circle cx="350" cy="300" r="25" fill="black"/><circle cx="350" cy="325" r="25" fill="black"/><circle cx="350" cy="350" r="25" fill="black"/><circle cx="350" cy="375" r="25" fill="black"/><circle cx="350" cy="400" r="25" fill="black"/><circle cx="350" cy="425" r="25" fill="black"/><circle cx="350" cy="450" r="25" fill="black"/><circle cx="350" cy="475" r="25" fill="black"/><circle cx="350" cy="500" r="25" fill="black"/><circle cx="375" cy="0" r="25" fill="black"/><circle cx="375" cy="25" r="25" fill="black"/><circle cx="375" cy="50" r="25" fill="black"/><circle cx="375" cy="75" r="25" fill="black"/><circle cx="375" cy="100" r="25" fill="black"/><circle cx="375" cy="125" r="25" fill="black"/><circle cx="375" cy="150" r="25" fill="black"/><circle cx="375" cy="175" r="25" fill="black"/><circle cx="375" cy="200" r="25" fill="black"/><circle cx="375" cy="225" r="25" fill="black"/><circle cx="375" cy="250" r="25" fill="black"/><circle cx="375" cy="275" r="25" fill="black"/><circle cx="375" cy="300" r="25" fill="black"/><circle cx="375" cy="325" r="25" fill="black"/><circle cx="375" cy="350" r="25" fill="black"/><circle cx="375" cy="375" r="25" fill="black"/><circle cx="375" cy="400" r="25" fill="black"/><circle cx="375" cy="425" r="25" fill="black"/><circle cx="375" cy="450" r="25" fill="black"/><circle cx="375" cy="475" r="25" fill="black"/><circle cx="375" cy="500" r="25" fill="black"/><circle cx="400" cy="0" r="25" fill="black"/><circle cx="400" cy="25" r="25" fill="black"/><circle cx="400" cy="50" r="25" fill="black"/><circle cx="400" cy="75" r="25" fill="black"/><circle cx="400" cy="100" r="25" fill="black"/><circle cx="400" cy="125" r="25" fill="black"/><circle cx="400" cy="150" r="25" fill="black"/><circle cx="400" cy="175" r="25" fill="black"/><circle cx="400" cy="200" r="25" fill="black"/><circle cx="400" cy="225" r="25" fill="black"/><circle cx="400" cy="250" r="25" fill="black"/><circle cx="400" cy="275" r="25" fill="black"/><circle cx="400" cy="300" r="25" fill="black"/><circle cx="400" cy="325" r="25" fill="black"/><circle cx="400" cy="350" r="25" fill="black"/><circle cx="400" cy="375" r="25" fill="black"/><circle cx="400" cy="400" r="25" fill="black"/><circle cx="400" cy="425" r="25" fill="black"/><circle cx="400" cy="450" r="25" fill="black"/><circle cx="400" cy="475" r="25" fill="black"/><circle cx="400" cy="500" r="25" fill="black"/><circle cx="425" cy="0" r="25" fill="black"/><circle cx="425" cy="25" r="25" fill="black"/><circle cx="425" cy="50" r="25" fill="black"/><circle cx="425" cy="75" r="25" fill="black"/><circle cx="425" cy="100" r="25" fill="black"/><circle cx="425" cy="125" r="25" fill="black"/><circle cx="425" cy="150" r="25" fill="black"/><circle cx="425" cy="175" r="25" fill="black"/><circle cx="425" cy="200" r="25" fill="black"/><circle cx="425" cy="225" r="25" fill="black"/><circle cx="425" cy="250" r="25" fill="black"/><circle cx="425" cy="275" r="25" fill="black"/><circle cx="425" cy="300" r="25" fill="black"/><circle cx="425" cy="325" r="25" fill="black"/><circle cx="425" cy="350" r="25" fill="black"/><circle cx="425" cy="375" r="25" fill="black"/><circle cx="425" cy="400" r="25" fill="black"/><circle cx="425" cy="425" r="25" fill="black"/><circle cx="425" cy="450" r="25" fill="black"/><circle cx="425" cy="475" r="25" fill="black"/><circle cx="425" cy="500" r="25" fill="black"/><circle cx="450" cy="0" r="25" fill="black"/><circle cx="450" cy="25" r="25" fill="black"/><circle cx="450" cy="50" r="25" fill="black"/><circle cx="450" cy="75" r="25" fill="black"/><circle cx="450" cy="100" r="25" fill="black"/><circle cx="450" cy="125" r="25" fill="black"/><circle cx="450" cy="150" r="25" fill="black"/><circle cx="450" cy="175" r="25" fill="black"/><circle cx="450" cy="200" r="25" fill="black"/><circle cx="450" cy="225" r="25" fill="black"/><circle cx="450" cy="250" r="25" fill="black"/><circle cx="450" cy="275" r="25" fill="black"/><circle cx="450" cy="300" r="25" fill="black"/><circle cx="450" cy="325" r="25" fill="black"/><circle cx="450" cy="350" r="25" fill="black"/><circle cx="450" cy="375" r="25" fill="black"/><circle cx="450" cy="400" r="25" fill="black"/><circle cx="450" cy="425" r="25" fill="black"/><circle cx="450" cy="450" r="25" fill="black"/><circle cx="450" cy="475" r="25" fill="black"/><circle cx="450" cy="500" r="25" fill="black"/><circle cx="475" cy="0" r="25" fill="black"/><circle cx="475" cy="25" r="25" fill="black"/><circle cx="475" cy="50" r="25" fill="black"/><circle cx="475" cy="75" r="25" fill="black"/><circle cx="475" cy="100" r="25" fill="black"/><circle cx="475" cy="125" r="25" fill="black"/><circle cx="475" cy="150" r="25" fill="black"/><circle cx="475" cy="175" r="25" fill="black"/><circle cx="475" cy="200" r="25" fill="black"/><circle cx="475" cy="225" r="25" fill="black"/><circle cx="475" cy="250" r="25" fill="black"/><circle cx="475" cy="275" r="25" fill="black"/><circle cx="475" cy="300" r="25" fill="black"/><circle cx="475" cy="325" r="25" fill="black"/><circle cx="475" cy="350" r="25" fill="black"/><circle cx="475" cy="375" r="25" fill="black"/><circle cx="475" cy="400" r="25" fill="black"/><circle cx="475" cy="425" r="25" fill="black"/><circle cx="475" cy="450" r="25" fill="black"/><circle cx="475" cy="475" r="25" fill="black"/><circle cx="475" cy="500" r="25" fill="black"/><circle cx="500" cy="0" r="25" fill="black"/><circle cx="500" cy="25" r="25" fill="black"/><circle cx="500" cy="50" r="25" fill="black"/><circle cx="500" cy="75" r="25" fill="black"/><circle cx="500" cy="100" r="25" fill="black"/><circle cx="500" cy="125" r="25" fill="black"/><circle cx="500" cy="150" r="25" fill="black"/><circle cx="500" cy="175" r="25" fill="black"/><circle cx="500" cy="200" r="25" fill="black"/><circle cx="500" cy="225" r="25" fill="black"/><circle cx="500" cy="250" r="25" fill="black"/><circle cx="500" cy="275" r="25" fill="black"/><circle cx="500" cy="300" r="25" fill="black"/><circle cx="500" cy="325" r="25" fill="black"/><circle cx="500" cy="350" r="25" fill="black"/><circle cx="500" cy="375" r="25" fill="black"/><circle cx="500" cy="400" r="25" fill="black"/><circle cx="500" cy="425" r="25" fill="black"/><circle cx="500" cy="450" r="25" fill="black"/><circle cx="500" cy="475" r="25" fill="black"/><circle cx="500" cy="500" r="25" fill="black"/><circle stroke="white" stroke-width="1" cx="11.904761904761905" cy="11.904761904761905" r="-1.041181582731862"/><circle stroke="white" stroke-width="1" cx="35.714285714285715" cy="11.904761904761905" r="-0.7409326351880873"/><circle stroke="white" stroke-width="1" cx="59.523809523809526" cy="11.904761904761905" r="2.4593147347429283"/><circle stroke="white" stroke-width="1" cx="83.33333333333334" cy="11.904761904761905" r="2.184664155657869"/><circle stroke="white" stroke-width="1" cx="107.14285714285714" cy="11.904761904761905" r="-0.32221170226335083"/><circle stroke="white" stroke-width="1" cx="130.95238095238096" cy="11.904761904761905" r="0.31627685342028844"/><circle stroke="white" stroke-width="1" cx="154.76190476190476" cy="11.904761904761905" r="0.9892661684618603"/><circle stroke="white" stroke-width="1" cx="178.57142857142858" cy="11.904761904761905" r="4.1545322552311825"/><circle stroke="white" stroke-width="1" cx="202.38095238095238" cy="11.904761904761905" r="-3.2826322112494877"/><circle stroke="white" stroke-width="1" cx="226.19047619047618" cy="11.904761904761905" r="-1.920464170726754"/><circle stroke="white" stroke-width="1" cx="250.0" cy="11.904761904761905" r="-0.9933163168158687"/><circle stroke="white" stroke-width="1" cx="273.80952380952385" cy="11.904761904761905" r="0.8469854629715675"/><circle stroke="white" stroke-width="1" cx="297.61904761904765" cy="11.904761904761905" r="1.3973860022336244"/><circle stroke="white" stroke-width="1" cx="321.42857142857144" cy="11.904761904761905" r="0.07487273377995464"/><circle stroke="white" stroke-width="1" cx="345.2380952380953" cy="11.904761904761905" r="1.0721650633407582"/><circle stroke="white" stroke-width="1" cx="369.0476190476191" cy="11.904761904761905" r="0.08642274457815849"/><circle stroke="white" stroke-width="1" cx="392.8571428571429" cy="11.904761904761905" r="0.6964191252760543"/><circle stroke="white" stroke-width="1" cx="416.6666666666667" cy="11.904761904761905" r="-3.170181861822656"/><circle stroke="white" stroke-width="1" cx="440.4761904761905" cy="11.904761904761905" r="-2.551814601739038"/><circle stroke="white" stroke-width="1" cx="464.28571428571433" cy="11.904761904761905" r="0.5228451171864231"/><circle stroke="white" stroke-width="1" cx="11.904761904761905" cy="35.714285714285715" r="-1.01356105403611"/><circle stroke="white" stroke-width="1" cx="35.714285714285715" cy="35.714285714285715" r="-3.370961673217162"/><circle stroke="white" stroke-width="1" cx="59.523809523809526" cy="35.714285714285715" r="-1.0932905782255653"/><circle stroke="white" stroke-width="1" cx="83.33333333333334" cy="35.714285714285715" r="-1.8402856204388558"/><circle stroke="white" stroke-width="1" cx="107.14285714285714" cy="35.714285714285715" r="-0.6100224445031371"/><circle stroke="white" stroke-width="1" cx="130.95238095238096" cy="35.714285714285715" r="-1.085868725854487"/><circle stroke="white" stroke-width="1" cx="154.76190476190476" cy="35.714285714285715" r="-0.8289060602471803"/><circle stroke="white" stroke-width="1" cx="178.57142857142858" cy="35.714285714285715" r="4.54554418247762"/><circle stroke="white" stroke-width="1" cx="202.38095238095238" cy="35.714285714285715" r="-3.3227022171132874"/><circle stroke="white" stroke-width="1" cx="226.19047619047618" cy="35.714285714285715" r="1.5510817423004088"/><circle stroke="white" stroke-width="1" cx="250.0" cy="35.714285714285715" r="-1.91614226273523"/><circle stroke="white" stroke-width="1" cx="273.80952380952385" cy="35.714285714285715" r="0.09341617025581621"/><circle stroke="white" stroke-width="1" cx="297.61904761904765" cy="35.714285714285715" r="0.630893712139417"/><circle stroke="white" stroke-width="1" cx="321.42857142857144" cy="35.714285714285715" r="-1.960489737841543"/><circle stroke="white" stroke-width="1" cx="345.2380952380953" cy="35.714285714285715" r="-0.335304741223809"/><circle stroke="white" stroke-width="1" cx="369.0476190476191" cy="35.714285714285715" r="1.4498835625188904"/><circle stroke="white" stroke-width="1" cx="392.8571428571429" cy="35.714285714285715" r="2.0271900876016353"/><circle stroke="white" stroke-width="1" cx="416.6666666666667" cy="35.714285714285715" r="-1.358216892787197"/><circle stroke="white" stroke-width="1" cx="440.4761904761905" cy="35.714285714285715" r="0.07140769557499221"/><circle stroke="white" stroke-width="1" cx="464.28571428571433" cy="35.714285714285715" r="2.176668888658171"/><circle stroke="white" stroke-width="1" cx="11.904761904761905" cy="59.523809523809526" r="-0.45139191018361513"/><circle stroke="white" stroke-width="1" cx="35.714285714285715" cy="59.523809523809526" r="-1.6723899696468687"/><circle stroke="white" stroke-width="1" cx="59.523809523809526" cy="59.523809523809526" r="-3.49993480908312"/><circle stroke="white" stroke-width="1" cx="83.33333333333334" cy="59.523809523809526" r="3.5566383694126893"/><circle stroke="white" stroke-width="1" cx="107.14285714285714" cy="59.523809523809526" r="-2.0463653136561866"/><circle stroke="white" stroke-width="1" cx="130.95238095238096" cy="59.523809523809526" r="1.3155443103466526"/><circle stroke="white" stroke-width="1" cx="154.76190476190476" cy="59.523809523809526" r="2.9221971007698158"/><circle stroke="white" stroke-width="1" cx="178.57142857142858" cy="59.523809523809526" r="2.3501848711527806"/><circle stroke="white" stroke-width="1" cx="202.38095238095238" cy="59.523809523809526" r="-0.262582291755635"/><circle stroke="white" stroke-width="1" cx="226.19047619047618" cy="59.523809523809526" r="4.801760257434204"/><circle stroke="white" stroke-width="1" cx="250.0" cy="59.523809523809526" r="-1.127121876935386"/><circle stroke="white" stroke-width="1" cx="273.80952380952385" cy="59.523809523809526" r="0.3833238134893292"/><circle stroke="white" stroke-width="1" cx="297.61904761904765" cy="59.523809523809526" r="3.629224947161262"/><circle stroke="white" stroke-width="1" cx="321.42857142857144" cy="59.523809523809526" r="1.8420058542353588"/><circle stroke="white" stroke-width="1" cx="345.2380952380953" cy="59.523809523809526" r="-5.103229560564069"/><circle stroke="white" stroke-width="1" cx="369.0476190476191" cy="59.523809523809526" r="2.645780291905458"/><circle stroke="white" stroke-width="1" cx="392.8571428571429" cy="59.523809523809526" r="1.5174697760511788"/><circle stroke="white" stroke-width="1" cx="416.6666666666667" cy="59.523809523809526" r="-1.082072512590471"/><circle stroke="white" stroke-width="1" cx="440.4761904761905" cy="59.523809523809526" r="1.9751625568018842"/><circle stroke="white" stroke-width="1" cx="464.28571428571433" cy="59.523809523809526" r="-2.439222410157315"/><circle stroke="white" stroke-width="1" cx="11.904761904761905" cy="83.33333333333334" r="2.318884864100993"/><circle stroke="white" stroke-width="1" cx="35.714285714285715" cy="83.33333333333334" r="-2.5610248122876063"/><circle stroke="white" stroke-width="1" cx="59.523809523809526" cy="83.33333333333334" r="2.9214044463934354"/><circle stroke="white" stroke-width="1" cx="83.33333333333334" cy="83.33333333333334" r="-0.3530448577582651"/><circle stroke="white" stroke-width="1" cx="107.14285714285714" cy="83.33333333333334" r="1.1385990572209315"/><circle stroke="white" stroke-width="1" cx="130.95238095238096" cy="83.33333333333334" r="0.7649526476366451"/><circle stroke="white" stroke-width="1" cx="154.76190476190476" cy="83.33333333333334" r="-3.3101481114932203"/><circle stroke="white" stroke-width="1" cx="178.57142857142858" cy="83.33333333333334" r="-1.0070681243668171"/><circle stroke="white" stroke-width="1" cx="202.38095238095238" cy="83.33333333333334" r="1.458985467121613"/><circle stroke="white" stroke-width="1" cx="226.19047619047618" cy="83.33333333333334" r="-3.824213940520381"/><circle stroke="white" stroke-width="1" cx="250.0" cy="83.33333333333334" r="-0.565166150589588"/><circle stroke="white" stroke-width="1" cx="273.80952380952385" cy="83.33333333333334" r="-0.73390782082761"/><circle stroke="white" stroke-width="1" cx="297.61904761904765" cy="83.33333333333334" r="-4.226826330311565"/><circle stroke="white" stroke-width="1" cx="321.42857142857144" cy="83.33333333333334" r="2.4857286320810026"/><circle stroke="white" stroke-width="1" cx="345.2380952380953" cy="83.33333333333334" r="0.6462784497239975"/><circle stroke="white" stroke-width="1" cx="369.0476190476191" cy="83.33333333333334" r="-3.596894848557888"/><circle stroke="white" stroke-width="1" cx="392.8571428571429" cy="83.33333333333334" r="2.772292594593493"/><circle stroke="white" stroke-width="1" cx="416.6666666666667" cy="83.33333333333334" r="-0.03828990534504546"/><circle stroke="white" stroke-width="1" cx="440.4761904761905" cy="83.33333333333334" r="3.785761312663794"/><circle stroke="white" stroke-width="1" cx="464.28571428571433" cy="83.33333333333334" r="1.850371240919445"/><circle stroke="white" stroke-width="1" cx="11.904761904761905" cy="107.14285714285714" r="-1.5128927593244301"/><circle stroke="white" stroke-width="1" cx="35.714285714285715" cy="107.14285714285714" r="-0.00839213453914513"/><circle stroke="white" stroke-width="1" cx="59.523809523809526" cy="107.14285714285714" r="1.7908101087915316"/><circle stroke="white" stroke-width="1" cx="83.33333333333334" cy="107.14285714285714" r="0.5154741172606859"/><circle stroke="white" stroke-width="1" cx="107.14285714285714" cy="107.14285714285714" r="1.5402155593471845"/><circle stroke="white" stroke-width="1" cx="130.95238095238096" cy="107.14285714285714" r="0.781567239759389"/><circle stroke="white" stroke-width="1" cx="154.76190476190476" cy="107.14285714285714" r="-1.843124624348094"/><circle stroke="white" stroke-width="1" cx="178.57142857142858" cy="107.14285714285714" r="-1.5251602358182255"/><circle stroke="white" stroke-width="1" cx="202.38095238095238" cy="107.14285714285714" r="3.0644367583179797"/><circle stroke="white" stroke-width="1" cx="226.19047619047618" cy="107.14285714285714" r="-2.1358377540614124"/><circle stroke="white" stroke-width="1" cx="250.0" cy="107.14285714285714" r="0.5391991887994442"/><circle stroke="white" stroke-width="1" cx="273.80952380952385" cy="107.14285714285714" r="0.9531347946595253"/><circle stroke="white" stroke-width="1" cx="297.61904761904765" cy="107.14285714285714" r="0.36797654461794066"/><circle stroke="white" stroke-width="1" cx="321.42857142857144" cy="107.14285714285714" r="2.7373480556425016"/><circle stroke="white" stroke-width="1" cx="345.2380952380953" cy="107.14285714285714" r="-1.1116328983543202"/><circle stroke="white" stroke-width="1" cx="369.0476190476191" cy="107.14285714285714" r="0.5629958578752469"/><circle stroke="white" stroke-width="1" cx="392.8571428571429" cy="107.14285714285714" r="-1.0690161887866996"/><circle stroke="white" stroke-width="1" cx="416.6666666666667" cy="107.14285714285714" r="2.4232187517347588"/><circle stroke="white" stroke-width="1" cx="440.4761904761905" cy="107.14285714285714" r="5.30299060910329"/><circle stroke="white" stroke-width="1" cx="464.28571428571433" cy="107.14285714285714" r="2.019476367440336"/><circle stroke="white" stroke-width="1" cx="11.904761904761905" cy="130.95238095238096" r="-0.7207882555816759"/><circle stroke="white" stroke-width="1" cx="35.714285714285715" cy="130.95238095238096" r="-2.854074041113365"/><circle stroke="white" stroke-width="1" cx="59.523809523809526" cy="130.95238095238096" r="-1.7492424566205975"/><circle stroke="white" stroke-width="1" cx="83.33333333333334" cy="130.95238095238096" r="-1.3045384848874926"/><circle stroke="white" stroke-width="1" cx="107.14285714285714" cy="130.95238095238096" r="-0.6348920707489671"/><circle stroke="white" stroke-width="1" cx="130.95238095238096" cy="130.95238095238096" r="-0.28547050659008816"/><circle stroke="white" stroke-width="1" cx="154.76190476190476" cy="130.95238095238096" r="0.23337285481462364"/><circle stroke="white" stroke-width="1" cx="178.57142857142858" cy="130.95238095238096" r="-0.1367159531343949"/><circle stroke="white" stroke-width="1" cx="202.38095238095238" cy="130.95238095238096" r="0.871363364534269"/><circle stroke="white" stroke-width="1" cx="226.19047619047618" cy="130.95238095238096" r="0.8637816494916986"/><circle stroke="white" stroke-width="1" cx="250.0" cy="130.95238095238096" r="0.5098993649005715"/><circle stroke="white" stroke-width="1" cx="273.80952380952385" cy="130.95238095238096" r="-0.14223194135556308"/><circle stroke="white" stroke-width="1" cx="297.61904761904765" cy="130.95238095238096" r="-1.1548344688097092"/><circle stroke="white" stroke-width="1" cx="321.42857142857144" cy="130.95238095238096" r="1.3624057353481351"/><circle stroke="white" stroke-width="1" cx="345.2380952380953" cy="130.95238095238096" r="-0.64319478870236"/><circle stroke="white" stroke-width="1" cx="369.0476190476191" cy="130.95238095238096" r="0.029127098193693742"/><circle stroke="white" stroke-width="1" cx="392.8571428571429" cy="130.95238095238096" r="-2.069548974008949"/><circle stroke="white" stroke-width="1" cx="416.6666666666667" cy="130.95238095238096" r="1.281884928667157"/><circle stroke="white" stroke-width="1" cx="440.4761904761905" cy="130.95238095238096" r="-1.9286311362407176"/><circle stroke="white" stroke-width="1" cx="464.28571428571433" cy="130.95238095238096" r="-1.5593664803930094"/><circle stroke="white" stroke-width="1" cx="11.904761904761905" cy="154.76190476190476" r="-0.8735067649601442"/><circle stroke="white" stroke-width="1" cx="35.714285714285715" cy="154.76190476190476" r="-1.5205372407441409"/><circle stroke="white" stroke-width="1" cx="59.523809523809526" cy="154.76190476190476" r="2.051237012616804"/><circle stroke="white" stroke-width="1" cx="83.33333333333334" cy="154.76190476190476" r="-0.8867670419793164"/><circle stroke="white" stroke-width="1" cx="107.14285714285714" cy="154.76190476190476" r="-0.7958954726149299"/><circle stroke="white" stroke-width="1" cx="130.95238095238096" cy="154.76190476190476" r="0.09086443943881133"/><circle stroke="white" stroke-width="1" cx="154.76190476190476" cy="154.76190476190476" r="3.451384076611438"/><circle stroke="white" stroke-width="1" cx="178.57142857142858" cy="154.76190476190476" r="-1.5675172687916228"/><circle stroke="white" stroke-width="1" cx="202.38095238095238" cy="154.76190476190476" r="1.2375142619891715"/><circle stroke="white" stroke-width="1" cx="226.19047619047618" cy="154.76190476190476" r="0.6878712737341176"/><circle stroke="white" stroke-width="1" cx="250.0" cy="154.76190476190476" r="-1.8194441216224986"/><circle stroke="white" stroke-width="1" cx="273.80952380952385" cy="154.76190476190476" r="2.0036591993625192"/><circle stroke="white" stroke-width="1" cx="297.61904761904765" cy="154.76190476190476" r="-1.9631982351203003"/><circle stroke="white" stroke-width="1" cx="321.42857142857144" cy="154.76190476190476" r="-1.2430680226427246"/><circle stroke="white" stroke-width="1" cx="345.2380952380953" cy="154.76190476190476" r="-2.2486519682238546"/><circle stroke="white" stroke-width="1" cx="369.0476190476191" cy="154.76190476190476" r="-0.7061288294095592"/><circle stroke="white" stroke-width="1" cx="392.8571428571429" cy="154.76190476190476" r="-1.4249292215236682"/><circle stroke="white" stroke-width="1" cx="416.6666666666667" cy="154.76190476190476" r="3.305556138084107"/><circle stroke="white" stroke-width="1" cx="440.4761904761905" cy="154.76190476190476" r="3.3754784253788372"/><circle stroke="white" stroke-width="1" cx="464.28571428571433" cy="154.76190476190476" r="-3.6721969912336396"/><circle stroke="white" stroke-width="1" cx="11.904761904761905" cy="178.57142857142858" r="-0.4765834573139106"/><circle stroke="white" stroke-width="1" cx="35.714285714285715" cy="178.57142857142858" r="0.8688202261698894"/><circle stroke="white" stroke-width="1" cx="59.523809523809526" cy="178.57142857142858" r="2.6214516829625927"/><circle stroke="white" stroke-width="1" cx="83.33333333333334" cy="178.57142857142858" r="3.2675720209572305"/><circle stroke="white" stroke-width="1" cx="107.14285714285714" cy="178.57142857142858" r="2.1691672956352783"/><circle stroke="white" stroke-width="1" cx="130.95238095238096" cy="178.57142857142858" r="-1.8887198554634208"/><circle stroke="white" stroke-width="1" cx="154.76190476190476" cy="178.57142857142858" r="0.2529693847929261"/><circle stroke="white" stroke-width="1" cx="178.57142857142858" cy="178.57142857142858" r="5.312888369014313"/><circle stroke="white" stroke-width="1" cx="202.38095238095238" cy="178.57142857142858" r="-3.233450810864007"/><circle stroke="white" stroke-width="1" cx="226.19047619047618" cy="178.57142857142858" r="-3.227587667933932"/><circle stroke="white" stroke-width="1" cx="250.0" cy="178.57142857142858" r="-4.247754317878646"/><circle stroke="white" stroke-width="1" cx="273.80952380952385" cy="178.57142857142858" r="-0.6807052710302407"/><circle stroke="white" stroke-width="1" cx="297.61904761904765" cy="178.57142857142858" r="-1.0058791878901556"/><circle stroke="white" stroke-width="1" cx="321.42857142857144" cy="178.57142857142858" r="-3.028222053119898"/><circle stroke="white" stroke-width="1" cx="345.2380952380953" cy="178.57142857142858" r="2.8108534728303862"/><circle stroke="white" stroke-width="1" cx="369.0476190476191" cy="178.57142857142858" r="2.6023892190756963"/><circle stroke="white" stroke-width="1" cx="392.8571428571429" cy="178.57142857142858" r="1.9150719596786507"/><circle stroke="white" stroke-width="1" cx="416.6666666666667" cy="178.57142857142858" r="-0.8266884208934843"/><circle stroke="white" stroke-width="1" cx="440.4761904761905" cy="178.57142857142858" r="1.5032652254255072"/><circle stroke="white" stroke-width="1" cx="464.28571428571433" cy="178.57142857142858" r="-3.3011086440629893"/><circle stroke="white" stroke-width="1" cx="11.904761904761905" cy="202.38095238095238" r="0.5571766322295912"/><circle stroke="white" stroke-width="1" cx="35.714285714285715" cy="202.38095238095238" r="-2.2614336589592234"/><circle stroke="white" stroke-width="1" cx="59.523809523809526" cy="202.38095238095238" r="-1.3378336331273657"/><circle stroke="white" stroke-width="1" cx="83.33333333333334" cy="202.38095238095238" r="-2.812882309258296"/><circle stroke="white" stroke-width="1" cx="107.14285714285714" cy="202.38095238095238" r="-1.3210542754294199"/><circle stroke="white" stroke-width="1" cx="130.95238095238096" cy="202.38095238095238" r="-1.0717675773328712"/><circle stroke="white" stroke-width="1" cx="154.76190476190476" cy="202.38095238095238" r="2.7452459894076213"/><circle stroke="white" stroke-width="1" cx="178.57142857142858" cy="202.38095238095238" r="2.040044886932684"/><circle stroke="white" stroke-width="1" cx="202.38095238095238" cy="202.38095238095238" r="0.039363933976775976"/><circle stroke="white" stroke-width="1" cx="226.19047619047618" cy="202.38095238095238" r="-5.334863442258527"/><circle stroke="white" stroke-width="1" cx="250.0" cy="202.38095238095238" r="-1.2677764589633647"/><circle stroke="white" stroke-width="1" cx="273.80952380952385" cy="202.38095238095238" r="-0.6259970257013887"/><circle stroke="white" stroke-width="1" cx="297.61904761904765" cy="202.38095238095238" r="-0.20083480895064848"/><circle stroke="white" stroke-width="1" cx="321.42857142857144" cy="202.38095238095238" r="1.0305794525869199"/><circle stroke="white" stroke-width="1" cx="345.2380952380953" cy="202.38095238095238" r="-2.226275841965116"/><circle stroke="white" stroke-width="1" cx="369.0476190476191" cy="202.38095238095238" r="-1.9232130099305957"/><circle stroke="white" stroke-width="1" cx="392.8571428571429" cy="202.38095238095238" r="-1.3210359713549311"/><circle stroke="white" stroke-width="1" cx="416.6666666666667" cy="202.38095238095238" r="0.5781745733670933"/><circle stroke="white" stroke-width="1" cx="440.4761904761905" cy="202.38095238095238" r="1.552129415278845"/><circle stroke="white" stroke-width="1" cx="464.28571428571433" cy="202.38095238095238" r="0.4901073228550154"/><circle stroke="white" stroke-width="1" cx="11.904761904761905" cy="226.19047619047618" r="-0.09844358522389282"/><circle stroke="white" stroke-width="1" cx="35.714285714285715" cy="226.19047619047618" r="-0.23590219190113051"/><circle stroke="white" stroke-width="1" cx="59.523809523809526" cy="226.19047619047618" r="-3.8122172092673554"/><circle stroke="white" stroke-width="1" cx="83.33333333333334" cy="226.19047619047618" r="-3.715727521924184"/><circle stroke="white" stroke-width="1" cx="107.14285714285714" cy="226.19047619047618" r="-1.9071109517055747"/><circle stroke="white" stroke-width="1" cx="130.95238095238096" cy="226.19047619047618" r="0.06129285432462962"/><circle stroke="white" stroke-width="1" cx="154.76190476190476" cy="226.19047619047618" r="3.279877360489687"/><circle stroke="white" stroke-width="1" cx="178.57142857142858" cy="226.19047619047618" r="0.2535222793335847"/><circle stroke="white" stroke-width="1" cx="202.38095238095238" cy="226.19047619047618" r="-2.046562722205506"/><circle stroke="white" stroke-width="1" cx="226.19047619047618" cy="226.19047619047618" r="-3.012172776659988"/><circle stroke="white" stroke-width="1" cx="250.0" cy="226.19047619047618" r="-1.3094205893102928"/><circle stroke="white" stroke-width="1" cx="273.80952380952385" cy="226.19047619047618" r="-1.9734148724905916"/><circle stroke="white" stroke-width="1" cx="297.61904761904765" cy="226.19047619047618" r="-2.6043502636545486"/><circle stroke="white" stroke-width="1" cx="321.42857142857144" cy="226.19047619047618" r="0.48006994064543124"/><circle stroke="white" stroke-width="1" cx="345.2380952380953" cy="226.19047619047618" r="3.063883099089069"/><circle stroke="white" stroke-width="1" cx="369.0476190476191" cy="226.19047619047618" r="-1.2886386055011476"/><circle stroke="white" stroke-width="1" cx="392.8571428571429" cy="226.19047619047618" r="-2.3609543538925575"/><circle stroke="white" stroke-width="1" cx="416.6666666666667" cy="226.19047619047618" r="-0.6307250713809726"/><circle stroke="white" stroke-width="1" cx="440.4761904761905" cy="226.19047619047618" r="-3.0979362965898947"/><circle stroke="white" stroke-width="1" cx="464.28571428571433" cy="226.19047619047618" r="1.255593203427347"/><circle stroke="white" stroke-width="1" cx="11.904761904761905" cy="250.0" r="-0.30982381317450225"/><circle stroke="white" stroke-width="1" cx="35.714285714285715" cy="250.0" r="-2.5539224058749848"/><circle stroke="white" stroke-width="1" cx="59.523809523809526" cy="250.0" r="0.47763175670552493"/><circle stroke="white" stroke-width="1" cx="83.33333333333334" cy="250.0" r="1.1789894781073846"/><circle stroke="white" stroke-width="1" cx="107.14285714285714" cy="250.0" r="1.7534062114132847"/><circle stroke="white" stroke-width="1" cx="130.95238095238096" cy="250.0" r="0.3581183722103013"/><circle stroke="white" stroke-width="1" cx="154.76190476190476" cy="250.0" r="2.597154565436915"/><circle stroke="white" stroke-width="1" cx="178.57142857142858" cy="250.0" r="1.5152484688177401"/><circle stroke="white" stroke-width="1" cx="202.38095238095238" cy="250.0" r="-0.7090865705106675"/><circle stroke="white" stroke-width="1" cx="226.19047619047618" cy="250.0" r="1.1031348412060649"/><circle stroke="white" stroke-width="1" cx="250.0" cy="250.0" r="0.0"/><circle stroke="white" stroke-width="1" cx="273.80952380952385" cy="250.0" r="-1.8266339544990082"/><circle stroke="white" stroke-width="1" cx="297.61904761904765" cy="250.0" r="0.15978035646473693"/><circle stroke="white" stroke-width="1" cx="321.42857142857144" cy="250.0" r="3.7092793836785547"/><circle stroke="white" stroke-width="1" cx="345.2380952380953" cy="250.0" r="-2.2677983718206045"/><circle stroke="white" stroke-width="1" cx="369.0476190476191" cy="250.0" r="-0.4088553449210119"/><circle stroke="white" stroke-width="1" cx="392.8571428571429" cy="250.0" r="-0.7035314164019261"/><circle stroke="white" stroke-width="1" cx="416.6666666666667" cy="250.0" r="-0.9713128070375119"/><circle stroke="white" stroke-width="1" cx="440.4761904761905" cy="250.0" r="3.871200979195371"/><circle stroke="white" stroke-width="1" cx="464.28571428571433" cy="250.0" r="-0.54118647311698"/><circle stroke="white" stroke-width="1" cx="11.904761904761905" cy="273.80952380952385" r="-1.108995908094517"/><circle stroke="white" stroke-width="1" cx="35.714285714285715" cy="273.80952380952385" r="-1.0239274936808147"/><circle stroke="white" stroke-width="1" cx="59.523809523809526" cy="273.80952380952385" r="-4.8281156693590725"/><circle stroke="white" stroke-width="1" cx="83.33333333333334" cy="273.80952380952385" r="4.514049988923855"/><circle stroke="white" stroke-width="1" cx="107.14285714285714" cy="273.80952380952385" r="0.3181959934435871"/><circle stroke="white" stroke-width="1" cx="130.95238095238096" cy="273.80952380952385" r="1.4514588649323534"/><circle stroke="white" stroke-width="1" cx="154.76190476190476" cy="273.80952380952385" r="-1.0231732135885439"/><circle stroke="white" stroke-width="1" cx="178.57142857142858" cy="273.80952380952385" r="-0.08425815742288255"/><circle stroke="white" stroke-width="1" cx="202.38095238095238" cy="273.80952380952385" r="3.2722717101927583"/><circle stroke="white" stroke-width="1" cx="226.19047619047618" cy="273.80952380952385" r="-3.676257820055126"/><circle stroke="white" stroke-width="1" cx="250.0" cy="273.80952380952385" r="0.039103840981502824"/><circle stroke="white" stroke-width="1" cx="273.80952380952385" cy="273.80952380952385" r="-2.279585003048929"/><circle stroke="white" stroke-width="1" cx="297.61904761904765" cy="273.80952380952385" r="0.9060979535542372"/><circle stroke="white" stroke-width="1" cx="321.42857142857144" cy="273.80952380952385" r="-1.7455341432377094"/><circle stroke="white" stroke-width="1" cx="345.2380952380953" cy="273.80952380952385" r="1.8241559892432122"/><circle stroke="white" stroke-width="1" cx="369.0476190476191" cy="273.80952380952385" r="-1.3209627966464075"/><circle stroke="white" stroke-width="1" cx="392.8571428571429" cy="273.80952380952385" r="-1.2896904035674677"/><circle stroke="white" stroke-width="1" cx="416.6666666666667" cy="273.80952380952385" r="3.780302099177538"/><circle stroke="white" stroke-width="1" cx="440.4761904761905" cy="273.80952380952385" r="-2.3742421700020024"/><circle stroke="white" stroke-width="1" cx="464.28571428571433" cy="273.80952380952385" r="0.9071307002981984"/><circle stroke="white" stroke-width="1" cx="11.904761904761905" cy="297.61904761904765" r="-1.091476760443388"/><circle stroke="white" stroke-width="1" cx="35.714285714285715" cy="297.61904761904765" r="1.2445136754604036"/><circle stroke="white" stroke-width="1" cx="59.523809523809526" cy="297.61904761904765" r="2.4674442787281032"/><circle stroke="white" stroke-width="1" cx="83.33333333333334" cy="297.61904761904765" r="3.0544501895705483"/><circle stroke="white" stroke-width="1" cx="107.14285714285714" cy="297.61904761904765" r="-4.50281394079596"/><circle stroke="white" stroke-width="1" cx="130.95238095238096" cy="297.61904761904765" r="-2.3619067580013824"/><circle stroke="white" stroke-width="1" cx="154.76190476190476" cy="297.61904761904765" r="2.431613393296171"/><circle stroke="white" stroke-width="1" cx="178.57142857142858" cy="297.61904761904765" r="1.3889913814722237"/><circle stroke="white" stroke-width="1" cx="202.38095238095238" cy="297.61904761904765" r="0.671335674161682"/><circle stroke="white" stroke-width="1" cx="226.19047619047618" cy="297.61904761904765" r="-0.49371422998289033"/><circle stroke="white" stroke-width="1" cx="250.0" cy="297.61904761904765" r="3.7055797997236497"/><circle stroke="white" stroke-width="1" cx="273.80952380952385" cy="297.61904761904765" r="3.1605400825657135"/><circle stroke="white" stroke-width="1" cx="297.61904761904765" cy="297.61904761904765" r="1.663714557765328"/><circle stroke="white" stroke-width="1" cx="321.42857142857144" cy="297.61904761904765" r="-0.40483895697795247"/><circle stroke="white" stroke-width="1" cx="345.2380952380953" cy="297.61904761904765" r="1.701959581129044"/><circle stroke="white" stroke-width="1" cx="369.0476190476191" cy="297.61904761904765" r="1.360649993961828"/><circle stroke="white" stroke-width="1" cx="392.8571428571429" cy="297.61904761904765" r="-0.6492455279960492"/><circle stroke="white" stroke-width="1" cx="416.6666666666667" cy="297.61904761904765" r="1.0679870800500626"/><circle stroke="white" stroke-width="1" cx="440.4761904761905" cy="297.61904761904765" r="0.49620630290098194"/><circle stroke="white" stroke-width="1" cx="464.28571428571433" cy="297.61904761904765" r="0.544634650571874"/><circle stroke="white" stroke-width="1" cx="11.904761904761905" cy="321.42857142857144" r="-1.7919952331595805"/><circle stroke="white" stroke-width="1" cx="35.714285714285715" cy="321.42857142857144" r="0.24804974778483618"/><circle stroke="white" stroke-width="1" cx="59.523809523809526" cy="321.42857142857144" r="1.3729629707960416"/><circle stroke="white" stroke-width="1" cx="83.33333333333334" cy="321.42857142857144" r="-3.1920438156527284"/><circle stroke="white" stroke-width="1" cx="107.14285714285714" cy="321.42857142857144" r="1.7771650454683439"/><circle stroke="white" stroke-width="1" cx="130.95238095238096" cy="321.42857142857144" r="0.9108214267369912"/><circle stroke="white" stroke-width="1" cx="154.76190476190476" cy="321.42857142857144" r="-3.3596315718235186"/><circle stroke="white" stroke-width="1" cx="178.57142857142858" cy="321.42857142857144" r="-0.4380930378375525"/><circle stroke="white" stroke-width="1" cx="202.38095238095238" cy="321.42857142857144" r="0.34199152215944517"/><circle stroke="white" stroke-width="1" cx="226.19047619047618" cy="321.42857142857144" r="-1.4799412542154362"/><circle stroke="white" stroke-width="1" cx="250.0" cy="321.42857142857144" r="0.3984148900885581"/><circle stroke="white" stroke-width="1" cx="273.80952380952385" cy="321.42857142857144" r="1.0557132099044093"/><circle stroke="white" stroke-width="1" cx="297.61904761904765" cy="321.42857142857144" r="2.313683970956738"/><circle stroke="white" stroke-width="1" cx="321.42857142857144" cy="321.42857142857144" r="-4.40718384436444"/><circle stroke="white" stroke-width="1" cx="345.2380952380953" cy="321.42857142857144" r="2.617474986400721"/><circle stroke="white" stroke-width="1" cx="369.0476190476191" cy="321.42857142857144" r="-0.10479825413710167"/><circle stroke="white" stroke-width="1" cx="392.8571428571429" cy="321.42857142857144" r="-1.0285268206779836"/><circle stroke="white" stroke-width="1" cx="416.6666666666667" cy="321.42857142857144" r="1.2315612576825845"/><circle stroke="white" stroke-width="1" cx="440.4761904761905" cy="321.42857142857144" r="1.627813586440179"/><circle stroke="white" stroke-width="1" cx="464.28571428571433" cy="321.42857142857144" r="3.5337634070133714"/><circle stroke="white" stroke-width="1" cx="11.904761904761905" cy="345.2380952380953" r="-0.8712708526253852"/><circle stroke="white" stroke-width="1" cx="35.714285714285715" cy="345.2380952380953" r="2.9797420908327785"/><circle stroke="white" stroke-width="1" cx="59.523809523809526" cy="345.2380952380953" r="0.5808195297078683"/><circle stroke="white" stroke-width="1" cx="83.33333333333334" cy="345.2380952380953" r="3.379260680291131"/><circle stroke="white" stroke-width="1" cx="107.14285714285714" cy="345.2380952380953" r="1.6437768942251239"/><circle stroke="white" stroke-width="1" cx="130.95238095238096" cy="345.2380952380953" r="-0.4483636399319606"/><circle stroke="white" stroke-width="1" cx="154.76190476190476" cy="345.2380952380953" r="-0.03165952354059991"/><circle stroke="white" stroke-width="1" cx="178.57142857142858" cy="345.2380952380953" r="-1.6327009304529883"/><circle stroke="white" stroke-width="1" cx="202.38095238095238" cy="345.2380952380953" r="-0.814451923137686"/><circle stroke="white" stroke-width="1" cx="226.19047619047618" cy="345.2380952380953" r="1.6513984148692429"/><circle stroke="white" stroke-width="1" cx="250.0" cy="345.2380952380953" r="-0.8686111254589313"/><circle stroke="white" stroke-width="1" cx="273.80952380952385" cy="345.2380952380953" r="-2.5252043434706515"/><circle stroke="white" stroke-width="1" cx="297.61904761904765" cy="345.2380952380953" r="1.3621576054401108"/><circle stroke="white" stroke-width="1" cx="321.42857142857144" cy="345.2380952380953" r="3.2088509416534325"/><circle stroke="white" stroke-width="1" cx="345.2380952380953" cy="345.2380952380953" r="-0.6414407515797702"/><circle stroke="white" stroke-width="1" cx="369.0476190476191" cy="345.2380952380953" r="-1.6501045118833289"/><circle stroke="white" stroke-width="1" cx="392.8571428571429" cy="345.2380952380953" r="-0.8936001162120444"/><circle stroke="white" stroke-width="1" cx="416.6666666666667" cy="345.2380952380953" r="1.290053843826525"/><circle stroke="white" stroke-width="1" cx="440.4761904761905" cy="345.2380952380953" r="4.456207301404865"/><circle stroke="white" stroke-width="1" cx="464.28571428571433" cy="345.2380952380953" r="-3.1863917325914306"/><circle stroke="white" stroke-width="1" cx="11.904761904761905" cy="369.0476190476191" r="-0.19955223024955146"/><circle stroke="white" stroke-width="1" cx="35.714285714285715" cy="369.0476190476191" r="-2.601252482441351"/><circle stroke="white" stroke-width="1" cx="59.523809523809526" cy="369.0476190476191" r="0.49286961002690954"/><circle stroke="white" stroke-width="1" cx="83.33333333333334" cy="369.0476190476191" r="0.41458651402151225"/><circle stroke="white" stroke-width="1" cx="107.14285714285714" cy="369.0476190476191" r="-0.9938701429309313"/><circle stroke="white" stroke-width="1" cx="130.95238095238096" cy="369.0476190476191" r="-0.1700703073019285"/><circle stroke="white" stroke-width="1" cx="154.76190476190476" cy="369.0476190476191" r="-0.3613206603112872"/><circle stroke="white" stroke-width="1" cx="178.57142857142858" cy="369.0476190476191" r="0.8224862559178003"/><circle stroke="white" stroke-width="1" cx="202.38095238095238" cy="369.0476190476191" r="4.139506725373599"/><circle stroke="white" stroke-width="1" cx="226.19047619047618" cy="369.0476190476191" r="-1.8161992520006356"/><circle stroke="white" stroke-width="1" cx="250.0" cy="369.0476190476191" r="0.5515856427009984"/><circle stroke="white" stroke-width="1" cx="273.80952380952385" cy="369.0476190476191" r="1.1784831980557913"/><circle stroke="white" stroke-width="1" cx="297.61904761904765" cy="369.0476190476191" r="2.740032958657819"/><circle stroke="white" stroke-width="1" cx="321.42857142857144" cy="369.0476190476191" r="-1.4906739507440694"/><circle stroke="white" stroke-width="1" cx="345.2380952380953" cy="369.0476190476191" r="-0.005439181369191169"/><circle stroke="white" stroke-width="1" cx="369.0476190476191" cy="369.0476190476191" r="-0.6093135700583088"/><circle stroke="white" stroke-width="1" cx="392.8571428571429" cy="369.0476190476191" r="1.2404115993144669"/><circle stroke="white" stroke-width="1" cx="416.6666666666667" cy="369.0476190476191" r="-1.4818625763628823"/><circle stroke="white" stroke-width="1" cx="440.4761904761905" cy="369.0476190476191" r="-4.353618731188435"/><circle stroke="white" stroke-width="1" cx="464.28571428571433" cy="369.0476190476191" r="-1.1514933962916527"/><circle stroke="white" stroke-width="1" cx="11.904761904761905" cy="392.8571428571429" r="-0.4325719372782186"/><circle stroke="white" stroke-width="1" cx="35.714285714285715" cy="392.8571428571429" r="-0.3288225201337649"/><circle stroke="white" stroke-width="1" cx="59.523809523809526" cy="392.8571428571429" r="-0.43222808702995663"/><circle stroke="white" stroke-width="1" cx="83.33333333333334" cy="392.8571428571429" r="1.3755658416941003"/><circle stroke="white" stroke-width="1" cx="107.14285714285714" cy="392.8571428571429" r="1.139551715446128"/><circle stroke="white" stroke-width="1" cx="130.95238095238096" cy="392.8571428571429" r="-0.6458562829029048"/><circle stroke="white" stroke-width="1" cx="154.76190476190476" cy="392.8571428571429" r="0.9825781353476621"/><circle stroke="white" stroke-width="1" cx="178.57142857142858" cy="392.8571428571429" r="0.8474840129008846"/><circle stroke="white" stroke-width="1" cx="202.38095238095238" cy="392.8571428571429" r="-1.0950401276478996"/><circle stroke="white" stroke-width="1" cx="226.19047619047618" cy="392.8571428571429" r="-1.0031583170754206"/><circle stroke="white" stroke-width="1" cx="250.0" cy="392.8571428571429" r="1.3252315527515368"/><circle stroke="white" stroke-width="1" cx="273.80952380952385" cy="392.8571428571429" r="-2.1524620475326954"/><circle stroke="white" stroke-width="1" cx="297.61904761904765" cy="392.8571428571429" r="-0.40329594719082473"/><circle stroke="white" stroke-width="1" cx="321.42857142857144" cy="392.8571428571429" r="-2.531653364117067"/><circle stroke="white" stroke-width="1" cx="345.2380952380953" cy="392.8571428571429" r="2.5493207508925297"/><circle stroke="white" stroke-width="1" cx="369.0476190476191" cy="392.8571428571429" r="0.33260587773837824"/><circle stroke="white" stroke-width="1" cx="392.8571428571429" cy="392.8571428571429" r="-0.16134734032374273"/><circle stroke="white" stroke-width="1" cx="416.6666666666667" cy="392.8571428571429" r="-1.1761107454181607"/><circle stroke="white" stroke-width="1" cx="440.4761904761905" cy="392.8571428571429" r="-3.948693839382614"/><circle stroke="white" stroke-width="1" cx="464.28571428571433" cy="392.8571428571429" r="3.067519817529401"/><circle stroke="white" stroke-width="1" cx="11.904761904761905" cy="416.6666666666667" r="-0.9761794403592834"/><circle stroke="white" stroke-width="1" cx="35.714285714285715" cy="416.6666666666667" r="-2.5633240073872736"/><circle stroke="white" stroke-width="1" cx="59.523809523809526" cy="416.6666666666667" r="0.16579325628000358"/><circle stroke="white" stroke-width="1" cx="83.33333333333334" cy="416.6666666666667" r="-2.0503129916207654"/><circle stroke="white" stroke-width="1" cx="107.14285714285714" cy="416.6666666666667" r="1.8967735985166718"/><circle stroke="white" stroke-width="1" cx="130.95238095238096" cy="416.6666666666667" r="-0.8321376042361089"/><circle stroke="white" stroke-width="1" cx="154.76190476190476" cy="416.6666666666667" r="-0.7057549349351905"/><circle stroke="white" stroke-width="1" cx="178.57142857142858" cy="416.6666666666667" r="2.7273869231869474"/><circle stroke="white" stroke-width="1" cx="202.38095238095238" cy="416.6666666666667" r="1.3452855059133026"/><circle stroke="white" stroke-width="1" cx="226.19047619047618" cy="416.6666666666667" r="-1.8306498139052871"/><circle stroke="white" stroke-width="1" cx="250.0" cy="416.6666666666667" r="-0.38430453083954563"/><circle stroke="white" stroke-width="1" cx="273.80952380952385" cy="416.6666666666667" r="-0.661407565321365"/><circle stroke="white" stroke-width="1" cx="297.61904761904765" cy="416.6666666666667" r="-0.594718517758936"/><circle stroke="white" stroke-width="1" cx="321.42857142857144" cy="416.6666666666667" r="1.7773456551385143"/><circle stroke="white" stroke-width="1" cx="345.2380952380953" cy="416.6666666666667" r="2.1737855169343403"/><circle stroke="white" stroke-width="1" cx="369.0476190476191" cy="416.6666666666667" r="1.524109507720819"/><circle stroke="white" stroke-width="1" cx="392.8571428571429" cy="416.6666666666667" r="-0.1883355337059745"/><circle stroke="white" stroke-width="1" cx="416.6666666666667" cy="416.6666666666667" r="-5.594828770381109"/><circle stroke="white" stroke-width="1" cx="440.4761904761905" cy="416.6666666666667" r="0.36050158713817865"/><circle stroke="white" stroke-width="1" cx="464.28571428571433" cy="416.6666666666667" r="0.2731007990518966"/><circle stroke="white" stroke-width="1" cx="11.904761904761905" cy="440.4761904761905" r="-0.07501055659100554"/><circle stroke="white" stroke-width="1" cx="35.714285714285715" cy="440.4761904761905" r="-1.4206416374936044"/><circle stroke="white" stroke-width="1" cx="59.523809523809526" cy="440.4761904761905" r="0.2017821110992233"/><circle stroke="white" stroke-width="1" cx="83.33333333333334" cy="440.4761904761905" r="-0.584491725691861"/><circle stroke="white" stroke-width="1" cx="107.14285714285714" cy="440.4761904761905" r="-3.7748492735823027"/><circle stroke="white" stroke-width="1" cx="130.95238095238096" cy="440.4761904761905" r="2.259865681653354"/><circle stroke="white" stroke-width="1" cx="154.76190476190476" cy="440.4761904761905" r="1.776849489911829"/><circle stroke="white" stroke-width="1" cx="178.57142857142858" cy="440.4761904761905" r="0.4675335535273623"/><circle stroke="white" stroke-width="1" cx="202.38095238095238" cy="440.4761904761905" r="2.731710998766521"/><circle stroke="white" stroke-width="1" cx="226.19047619047618" cy="440.4761904761905" r="-1.9032197937800106"/><circle stroke="white" stroke-width="1" cx="250.0" cy="440.4761904761905" r="-0.49912358327496625"/><circle stroke="white" stroke-width="1" cx="273.80952380952385" cy="440.4761904761905" r="2.047749453415717"/><circle stroke="white" stroke-width="1" cx="297.61904761904765" cy="440.4761904761905" r="0.09746310982439124"/><circle stroke="white" stroke-width="1" cx="321.42857142857144" cy="440.4761904761905" r="2.2042345932440934"/><circle stroke="white" stroke-width="1" cx="345.2380952380953" cy="440.4761904761905" r="0.43966665903555324"/><circle stroke="white" stroke-width="1" cx="369.0476190476191" cy="440.4761904761905" r="-0.05488368333176957"/><circle stroke="white" stroke-width="1" cx="392.8571428571429" cy="440.4761904761905" r="0.9584952492631357"/><circle stroke="white" stroke-width="1" cx="416.6666666666667" cy="440.4761904761905" r="-0.6727759552223775"/><circle stroke="white" stroke-width="1" cx="440.4761904761905" cy="440.4761904761905" r="4.907405672543628"/><circle stroke="white" stroke-width="1" cx="464.28571428571433" cy="440.4761904761905" r="4.501488752026271"/><circle stroke="white" stroke-width="1" cx="11.904761904761905" cy="464.28571428571433" r="1.9900650262512756"/><circle stroke="white" stroke-width="1" cx="35.714285714285715" cy="464.28571428571433" r="0.0525144470564038"/><circle stroke="white" stroke-width="1" cx="59.523809523809526" cy="464.28571428571433" r="0.30186795769227215"/><circle stroke="white" stroke-width="1" cx="83.33333333333334" cy="464.28571428571433" r="2.079771058920191"/><circle stroke="white" stroke-width="1" cx="107.14285714285714" cy="464.28571428571433" r="-1.7848673910729587"/><circle stroke="white" stroke-width="1" cx="130.95238095238096" cy="464.28571428571433" r="2.097230708600763"/><circle stroke="white" stroke-width="1" cx="154.76190476190476" cy="464.28571428571433" r="-3.6197829262211143"/><circle stroke="white" stroke-width="1" cx="178.57142857142858" cy="464.28571428571433" r="0.4649896008080874"/><circle stroke="white" stroke-width="1" cx="202.38095238095238" cy="464.28571428571433" r="-4.184185252185322"/><circle stroke="white" stroke-width="1" cx="226.19047619047618" cy="464.28571428571433" r="0.6802114680571314"/><circle stroke="white" stroke-width="1" cx="250.0" cy="464.28571428571433" r="0.17188109770509605"/><circle stroke="white" stroke-width="1" cx="273.80952380952385" cy="464.28571428571433" r="-0.183234328406966"/><circle stroke="white" stroke-width="1" cx="297.61904761904765" cy="464.28571428571433" r="0.583103887588838"/><circle stroke="white" stroke-width="1" cx="321.42857142857144" cy="464.28571428571433" r="-0.6647108896825957"/><circle stroke="white" stroke-width="1" cx="345.2380952380953" cy="464.28571428571433" r="1.1805802501511655"/><circle stroke="white" stroke-width="1" cx="369.0476190476191" cy="464.28571428571433" r="-0.1695521012971715"/><circle stroke="white" stroke-width="1" cx="392.8571428571429" cy="464.28571428571433" r="0.101004861765663"/><circle stroke="white" stroke-width="1" cx="416.6666666666667" cy="464.28571428571433" r="2.1908548676374826"/><circle stroke="white" stroke-width="1" cx="440.4761904761905" cy="464.28571428571433" r="-1.115542097748647"/><circle stroke="white" stroke-width="1" cx="464.28571428571433" cy="464.28571428571433" r="-0.1284240976409334"/></svg>